<?xml version="1.0" encoding="UTF-8" standalone="no"?>
<svg
   xmlns:svg="http://www.w3.org/2000/svg"
   xmlns="http://www.w3.org/2000/svg"
   width="800.0"
   height="200.0"

>
    <g transform="scale(10.509429306175894, -10.509429306175894)   translate(28.545793616376884,-8.786980832248119)" stroke-width="0.09515264538792295"  fill="none">
       <!-- hidden lines -->
       <g  stroke="rgb(160,160,160)" fill="none" stroke-dasharray="0.09515264538792295,0.09515264538792295" >

       </g>

       <!-- solid lines -->
       <g  stroke="rgb(0,0,0)" fill="none">
			<path d="M-28.545793616376884,-0.7723150835218064 L-28.543264074407745,-0.7578863012244528 L-28.535681542388495,-0.7434922791274654 L-28.523064287302923,-0.7291676936908433 L-28.505442705223665,-0.7149470540955893 L-28.482859248085425,-0.700864619108069 L-28.45536832141452,-0.6869543145476429 L-28.385940634650584,-0.6597836458678603 L-28.29782827150843,-0.6336967164486265 L-28.191879802212227,-0.6089447576808151 L-28.06911556843863,-0.5857661444581568 L-27.93071785686864,-0.5643840994967058 " />
			<path d="M4.030508652763324,3.9110827947578635 L-27.930717856868625,-0.5643840994967046 " />
			<path d="M4.030508652763322,3.9110827947578644 L4.183206996511418,3.9304623506765166 L4.348735403913908,3.9476527818349294 L4.525499745920476,3.9624885349838017 L4.711797685288382,3.974826733710262 L4.905835071020699,3.9845485544158294 L5.105743217021202,3.9915603706526217 L5.3095968985629955,3.9957946547972294 L5.515432893255072,3.997210628378645 L5.721268887947148,3.9957946547972294 L5.925122569488941,3.9915603706526217 L6.125030715489444,3.9845485544158294 L6.319068101221761,3.974826733710262 L6.505366040589667,3.9624885349838017 L6.682130382596238,3.947652781834929 L6.84765878999873,3.930462350676516 L7.00035713374681,3.911082794757866 " />
			<path d="M28.545793616376884,0.7723150835218064 L28.543264074407745,0.7867438658191601 L28.535681542388495,0.8011378879161475 L28.523064287302923,0.8154624733527696 L28.505442705223665,0.8296831129480235 L28.482859248085425,0.8437655479355439 L28.45536832141452,0.85767585249597 L28.385940634650584,0.8848465211757526 L28.29782827150843,0.9109334505949864 L28.191879802212227,0.9356854093627978 L28.06911556843863,0.9588640225854561 L27.93071785686864,0.9802460675469071 " />
			<path d="M27.930717856868625,0.9802460675469076 L7.000357133746821,3.9110827947578635 " />
			<path d="M22.27386360737625,0.2475368857441682 L4.737615433949869,-2.208029020837984 " />
			<path d="M22.27386360737625,0.24753688574416857 L22.341356836510496,0.25743836117393426 " />
			<path d="M4.737615433949868,-2.208029020837984 L4.584917090201774,-2.2274085767566363 L4.419388682799283,-2.244599007915049 L4.242624340792713,-2.259434761063921 L4.056326401424807,-2.2717729597903817 L3.862289015692489,-2.281494780495949 L3.6623808696919875,-2.2885065967327414 L3.458527188150195,-2.292740880877349 L3.2526911934581175,-2.2941568544587647 L3.04685519876604,-2.292740880877349 L2.8430015172242475,-2.2885065967327414 L2.643093371223746,-2.281494780495949 L2.4490559854914284,-2.2717729597903817 L2.2627580461235226,-2.259434761063921 L2.0859937041169525,-2.2445990079150486 L1.9204652967144618,-2.227408576756636 L1.767766952966374,-2.208029020837985 " />
			<path d="M1.7677669529663689,-2.2080290208379836 L-15.76848122046001,0.24753688574416866 " />
			<path d="M-15.835974449594262,0.25743836117393537 L-15.768481220460012,0.24753688574416885 " />
			<path d="M-27.930717856868625,-1.3763050847375773 L-7.000357133746821,-4.307141811948533 " />
			<path d="M-27.930717856868633,-1.3763050847375777 L-28.06911556843863,-1.3549230397761258 L-28.191879802212227,-1.3317444265534677 L-28.29782827150843,-1.3069924677856561 L-28.385940634650584,-1.2809055383664223 L-28.45536832141452,-1.25373486968664 L-28.482859248085425,-1.2398245651262136 L-28.505442705223665,-1.2257421301386933 L-28.523064287302923,-1.2115214905434393 L-28.535681542388495,-1.1971969051068174 L-28.543264074407745,-1.1828028830098298 L-28.545793616376884,-1.1683741007124775 " />
			<path d="M-28.545793616376884,-1.1683741007124762 L-28.543264074407745,-1.1539453184151225 L-28.535681542388495,-1.1395512963181351 L-28.523064287302923,-1.125226710881513 L-28.505442705223665,-1.111006071286259 L-28.482859248085425,-1.0969236362987387 L-28.45536832141452,-1.0830133317383126 L-28.385940634650584,-1.05584266305853 L-28.29782827150843,-1.0297557336392962 L-28.191879802212227,-1.0050037748714848 L-28.06911556843863,-0.9818251616488265 L-27.93071785686864,-0.9604431166873755 " />
			<path d="M-7.000357133746824,-4.307141811948534 L-6.847658789998729,-4.326521367867186 L-6.682130382596238,-4.3437117990255985 L-6.505366040589669,-4.358547552174471 L-6.319068101221762,-4.370885750900931 L-6.125030715489445,-4.380607571606499 L-5.925122569488943,-4.387619387843291 L-5.721268887947151,-4.3918536719878984 L-5.515432893255073,-4.3932696455693145 L-5.3095968985629955,-4.3918536719878984 L-5.105743217021203,-4.387619387843291 L-4.905835071020702,-4.380607571606499 L-4.711797685288384,-4.370885750900932 L-4.525499745920478,-4.358547552174471 L-4.348735403913908,-4.3437117990255985 L-4.183206996511417,-4.326521367867186 L-4.030508652763329,-4.307141811948535 " />
			<path d="M4.030508652763324,3.5150237775671935 L-27.930717856868625,-0.9604431166873746 " />
			<path d="M-4.030508652763324,-4.307141811948533 L27.930717856868625,0.16832508230603516 " />
			<path d="M4.030508652763322,3.5150237775671944 L4.183206996511418,3.5344033334858467 L4.348735403913908,3.5515937646442595 L4.525499745920476,3.5664295177931313 L4.711797685288382,3.578767716519592 L4.905835071020699,3.5884895372251595 L5.105743217021202,3.5955013534619518 L5.3095968985629955,3.5997356376065595 L5.515432893255072,3.601151611187975 L5.721268887947148,3.5997356376065595 L5.925122569488941,3.5955013534619518 L6.125030715489444,3.5884895372251595 L6.319068101221761,3.578767716519592 L6.505366040589667,3.5664295177931313 L6.682130382596238,3.551593764644259 L6.84765878999873,3.5344033334858462 L7.00035713374681,3.515023777567196 " />
			<path d="M27.930717856868633,0.16832508230603502 L28.06911556843863,0.18970712726748698 L28.191879802212227,0.21288574049014525 L28.29782827150843,0.2376376992579567 L28.385940634650584,0.26372462867719043 L28.45536832141452,0.29089529735697295 L28.482859248085425,0.30480560191739914 L28.505442705223665,0.3188880369049195 L28.523064287302923,0.33310867650017356 L28.535681542388495,0.3474332619367955 L28.543264074407745,0.36182728403378295 L28.545793616376884,0.37625606633113534 " />
			<path d="M28.545793616376884,0.3762560663311366 L28.543264074407745,0.39068484862849034 L28.535681542388495,0.40507887072547777 L28.523064287302923,0.41940345616209973 L28.505442705223665,0.4336240957573538 L28.482859248085425,0.44770653074487415 L28.45536832141452,0.4616168353053003 L28.385940634650584,0.48878750398508286 L28.29782827150843,0.5148744334043166 L28.191879802212227,0.539626392172128 L28.06911556843863,0.5628050053947863 L27.93071785686864,0.5841870503562373 " />
			<path d="M27.930717856868625,0.5841870503562379 L7.000357133746821,3.5150237775671935 " />
			<path d="M-23.546655813512032,2.307043775135651 L-23.630101971345926,2.317213867619833 L-23.72276962229567,2.3256747783883496 L-23.822886753662246,2.3322647159079803 L-23.92853890202338,2.3368576658376807 L-24.03770576205509,2.339365800704563 L-24.14829981928705,2.339741159361566 L-24.25820626804713,2.3379765641118335 L-24.36532345127474,2.334105757962328 L-24.4676030489033,2.3282027593820844 L-24.563089246320153,2.320380446903571 L-24.649956133915307,2.3107884006327426 L-24.726542622556092,2.2996100419429406 L-24.791384207325695,2.287059126048088 L-24.84324097213195,2.2733756545250254 L-24.881121299675556,2.2588212859466967 L-24.89458308318866,2.2513039810426037 L-24.904300833390202,2.2436743323851447 " />
			<path d="M-24.904300833390202,2.243674332385144 L-24.910328605511385,2.235773130338256 L-24.91234123846127,2.2278319716975177 " />
			<path d="M-22.463813101037413,2.109014266540316 L-22.465825733987298,2.116955425181055 L-22.47185350610848,2.1248566272279423 " />
			<path d="M-22.47185350610848,2.1248566272279428 L-22.483504868341633,2.1337160414972547 L-22.500202269968334,2.1424157161607282 L-22.54827134823748,2.159112209827128 L-22.614819352896966,2.1745149198635976 L-22.698127676088173,2.18822606997845 " />
			<path d="M-22.698127676088177,2.18822606997845 L-23.546655813512032,2.307043775135651 " />
			<path d="M-5.586143571373725,-0.20793098402510224 L-5.669589729207619,-0.19776089154092003 L-5.762257380157364,-0.1892999807724034 L-5.8623745115239405,-0.18271004325277274 L-5.968026659885075,-0.17811709332307224 L-6.077193519916784,-0.17560895845619007 L-6.187787577148743,-0.175233599799187 L-6.297694025908825,-0.17699819504891925 L-6.404811209136434,-0.1808690011984247 L-6.507090806764995,-0.18677199977866835 L-6.602577004181846,-0.19459431225718177 L-6.689443891777001,-0.20418635852801023 L-6.766030380417785,-0.21536471721781247 L-6.830871965187391,-0.22791563311266502 L-6.882728729993644,-0.24159910463572748 L-6.920609057537251,-0.25615347321405607 L-6.934070841050355,-0.2636707781181493 L-6.943788591251896,-0.2713004267756084 " />
			<path d="M-6.943788591251897,-0.27130042677560934 L-6.949816363373078,-0.27920162882249694 L-6.951828996322964,-0.2871427874632352 " />
			<path d="M-4.503300858899109,-0.40596049262043676 L-4.5053134918489945,-0.3980193339796976 L-4.511341263970174,-0.3901181319328105 " />
			<path d="M-4.511341263970175,-0.39011813193281 L-4.522992626203326,-0.3812587176634981 L-4.539690027830029,-0.3725590430000248 L-4.587759106099176,-0.3558625493336248 L-4.654307110758659,-0.3404598392971553 L-4.737615433949868,-0.32674868918230315 " />
			<path d="M-4.73761543394987,-0.3267486891823026 L-5.586143571373727,-0.20793098402510174 " />
			<path d="M5.868986283848347,6.426057553918617 L5.785540126014453,6.436227646402799 L5.692872475064708,6.444688557171316 L5.592755343698132,6.451278494690946 L5.4871031953369975,6.455871444620647 L5.3779363353052885,6.458379579487529 L5.267342278073329,6.458754938144533 L5.157435829313247,6.4569903428948 L5.050318646085638,6.4531195367452945 L4.948039048457077,6.447216538165051 L4.852552851040226,6.439394225686538 L4.765685963445071,6.429802179415709 L4.689099474804287,6.418623820725907 L4.624257890034682,6.4060729048310545 L4.572401125228428,6.392389433307992 L4.534520797684821,6.3778350647296636 L4.521059014171717,6.37031775982557 L4.511341263970176,6.362688111168111 " />
			<path d="M4.511341263970175,6.36268811116811 L4.5053134918489945,6.354786909121223 L4.503300858899109,6.346845750480484 " />
			<path d="M6.951828996322964,6.228028045323282 L6.949816363373078,6.2359692039640215 L6.943788591251898,6.243870406010909 " />
			<path d="M6.943788591251897,6.243870406010909 L6.932137229018746,6.252729820280221 L6.915439827392043,6.261429494943694 L6.867370749122896,6.278125988610094 L6.800822744463413,6.293528698646564 L6.717514421272204,6.307239848761416 " />
			<path d="M6.717514421272202,6.307239848761416 L5.868986283848345,6.426057553918617 " />
			<path d="M23.82949852598665,3.911082794757864 L23.746052368152757,3.921252887242046 L23.653384717203014,3.9297137980105625 L23.553267585836437,3.9363037355301933 L23.447615437475303,3.9408966854598937 L23.338448577443593,3.943404820326776 L23.227854520211633,3.9437801789837788 L23.117948071451554,3.9420155837340465 L23.010830888223943,3.938144777584541 L22.908551290595383,3.9322417790042974 L22.81306509317853,3.924419466525784 L22.726198205583376,3.9148274202549556 L22.64961171694259,3.9036490615651536 L22.584770132172988,3.891098145670301 L22.53291336736673,3.8774146741472384 L22.495033039823127,3.8628603055689097 L22.481571256310023,3.8553430006648166 L22.47185350610848,3.8477133520073576 " />
			<path d="M22.47185350610848,3.8477133520073568 L22.465825733987298,3.839812149960469 L22.463813101037413,3.8318709913197306 " />
			<path d="M24.91234123846127,3.713053286162529 L24.910328605511385,3.720994444803268 L24.904300833390202,3.7288956468501553 " />
			<path d="M24.904300833390202,3.728895646850156 L24.89264947115705,3.7377550611194676 L24.87595206953035,3.746454735782941 L24.827882991261202,3.763151229449341 L24.761334986601717,3.7785539394858105 L24.67802666341051,3.792265089600663 " />
			<path d="M24.67802666341051,3.792265089600663 L23.829498525986654,3.911082794757864 " />
			<path d="M22.27386360737625,-0.14852213144650062 L4.737615433949869,-2.604088038028653 " />
			<path d="M22.27386360737625,-0.1485221314465012 L22.412261318946246,-0.12714008648504924 L22.535025552719844,-0.10396147326239097 L22.640974022016046,-0.07920951449457952 L22.7290863851582,-0.05312258507534577 L22.79851407192214,-0.02595191639556324 L22.826004998593042,-0.012041611835137092 L22.84858845573128,0.0020408231523832768 L22.86621003781054,0.01626146274763733 L22.878827292896112,0.030586048184259293 L22.88640982491536,0.04498007028124673 L22.8889393668845,0.05940885257859912 " />
			<path d="M22.8889393668845,0.05940885257860042 L22.88640982491536,0.07383763487595411 L22.878827292896112,0.08823165697294155 L22.86621003781054,0.10255624240956351 L22.84858845573128,0.11677688200481756 L22.826004998593042,0.13085931699233794 L22.79851407192214,0.14476962155276407 L22.7290863851582,0.17194029023254662 L22.640974022016046,0.19802721965178038 L22.535025552719844,0.2227791784195918 L22.412261318946246,0.2459577916422501 L22.273863607376256,0.2673398366037011 " />
			<path d="M4.737615433949868,-2.604088038028654 L4.584917090201774,-2.623467593947306 L4.419388682799283,-2.640658025105719 L4.242624340792713,-2.6554937782545913 L4.056326401424807,-2.6678319769810517 L3.862289015692489,-2.677553797686619 L3.6623808696919875,-2.6845656139234113 L3.458527188150195,-2.688799898068019 L3.2526911934581175,-2.6902158716494347 L3.04685519876604,-2.688799898068019 L2.8430015172242475,-2.6845656139234113 L2.643093371223746,-2.677553797686619 L2.4490559854914284,-2.6678319769810517 L2.2627580461235226,-2.655493778254591 L2.0859937041169525,-2.6406580251057186 L1.9204652967144618,-2.6234675939473058 L1.767766952966374,-2.604088038028655 " />
			<path d="M4.7376154339498715,2.722905743185855 L22.273863607376253,0.26733983660370275 " />
			<path d="M1.7677669529663689,-2.604088038028653 L-15.76848122046001,-0.1485221314465004 " />
			<path d="M4.737615433949871,2.7229057431858545 L4.5849170902017775,2.7422852991045064 L4.419388682799285,2.759475730262919 L4.242624340792715,2.7743114834117915 L4.056326401424809,2.7866496821382523 L3.8622890156924923,2.7963715028438196 L3.6623808696919893,2.803383319080612 L3.4585271881501964,2.8076176032252196 L3.2526911934581197,2.8090335768066352 L3.046855198766043,2.8076176032252196 L2.8430015172242498,2.803383319080612 L2.643093371223747,2.7963715028438196 L2.44905598549143,2.7866496821382523 L2.2627580461235244,2.7743114834117915 L2.085993704116955,2.7594757302629196 L1.9204652967144649,2.742285299104507 L1.7677669529663829,2.7229057431858563 " />
			<path d="M-15.76848122046001,0.26733983660370214 L-15.906878932030008,0.2459577916422501 L-16.029643165803606,0.22277917841959188 L-16.135591635099807,0.19802721965178047 L-16.223703998241962,0.1719402902325468 L-16.2931316850059,0.14476962155276443 L-16.320622611676804,0.1308593169923383 L-16.343206068815043,0.11677688200481767 L-16.3608276508943,0.10255624240956338 L-16.373444905979873,0.08823165697294152 L-16.381027437999123,0.07383763487595423 L-16.38355697996826,0.05940885257860314 " />
			<path d="M-16.38355697996826,0.05940885257860046 L-16.381027437999123,0.04498007028124671 L-16.373444905979873,0.03058604818425936 L-16.3608276508943,0.016261462747637477 L-16.343206068815043,0.002040823152383381 L-16.320622611676804,-0.012041611835137037 L-16.2931316850059,-0.025951916395563226 L-16.223703998241962,-0.05312258507534573 L-16.135591635099807,-0.07920951449457947 L-16.029643165803606,-0.10396147326239097 L-15.906878932030008,-0.12714008648504924 L-15.768481220460012,-0.14852213144650092 " />
			<path d="M-15.76848122046001,0.267339836603703 L1.7677669529663689,2.7229057431858554 " />
			<path d="M-23.900209204105305,2.752610169475154 L-23.96625188239917,2.7595967956949163 L-24.04341536229706,2.7637903784884155 L-24.125825706270938,2.7648716885598725 L-24.20720956826632,2.7627584130351583 L-24.28137174140835,2.7576114213881247 L-24.342666757496826,2.749822519527888 L-24.386428638587773,2.73998462424617 L-24.40063376141663,2.734526736029297 L-24.40932608655962,2.7288466284437147 " />
			<path d="M-22.966828252939063,2.6100289232865133 L-22.97745903938651,2.6166135816363076 L-22.995484943737438,2.622874766761208 L-23.05168106668145,2.633792464317953 " />
			<path d="M-23.051681066681454,2.6337924643179536 L-23.90020920410531,2.7526101694751546 " />
			<path d="M-5.939696961966999,0.23763541031440139 L-6.005739640260864,0.24462203653416342 L-6.082903120158756,0.2488156193276626 L-6.165313464132631,0.2498969293991196 L-6.246697326128015,0.24778365387440546 L-6.320859499270044,0.24263666222737154 L-6.382154515358522,0.23484776036713503 L-6.425916396449469,0.2250098650854169 L-6.440121519278322,0.2195519768685437 L-6.448813844421314,0.21387186928296156 " />
			<path d="M-5.0063160108007585,0.09505416412576059 L-5.016946797248203,0.10163882247555504 L-5.034972701599133,0.10790000760045504 L-5.091168824543143,0.11881770515720066 " />
			<path d="M-5.091168824543145,0.11881770515720103 L-5.939696961967002,0.23763541031440188 " />
			<path d="M5.515432893255073,6.8716239482581205 L5.449390214961208,6.878610574477882 L5.372226735063316,6.882804157271382 L5.289816391089441,6.8838854673428385 L5.208432529094057,6.881772191818125 L5.134270355952028,6.87662520017109 L5.07297533986355,6.868836298310854 L5.029213458772603,6.858998403029136 L5.01500833594375,6.853540514812263 L5.0063160108007585,6.847860407226681 " />
			<path d="M6.448813844421314,6.729042702069479 L6.438183057973869,6.735627360419273 L6.420157153622939,6.741888545544174 L6.363961030678929,6.7528062431009195 " />
			<path d="M6.363961030678929,6.752806243100919 L5.515432893255072,6.87162394825812 " />
			<path d="M23.475945135393378,4.356649189097368 L23.409902457099513,4.36363581531713 L23.332738977201622,4.367829398110629 L23.250328633227745,4.368910708182086 L23.16894477123236,4.366797432657372 L23.094782598090333,4.361650441010338 L23.033487582001857,4.353861539150102 L22.98972570091091,4.3440236438683835 L22.975520578082055,4.33856575565151 L22.966828252939063,4.332885648065928 " />
			<path d="M24.40932608655962,4.214067942908726 L24.398695300112173,4.220652601258521 L24.380669395761245,4.226913786383421 L24.324473272817233,4.237831483940167 " />
			<path d="M24.324473272817237,4.237831483940166 L23.47594513539338,4.356649189097367 " />
			<path d="M-27.93071785686863,-0.5643840994967049 L-27.93071785686863,-0.9604431166873746 " />
			<path d="M4.030508652763324,3.9110827947578644 L4.030508652763324,3.5150237775671944 " />
			<path d="M7.0003571337468244,3.9110827947578644 L7.0003571337468244,3.5150237775671944 " />
			<path d="M27.930717856868633,0.980246067546908 L27.930717856868633,0.5841870503562383 " />
			<path d="M-23.546655813512032,0.04950737714883369 L-23.546655813512032,2.307043775135651 " />
			<path d="M-22.698127676088177,0.16832508230603405 L-22.698127676088177,2.18822606997845 " />
			<path d="M-5.586143571373725,-1.1782755761422425 L-5.586143571373725,-0.20793098402510157 " />
			<path d="M-4.73761543394987,-1.2970932812994431 L-4.73761543394987,-0.3267486891823026 " />
			<path d="M5.868986283848347,3.9930131704258707 L5.868986283848347,6.426057553918616 " />
			<path d="M6.717514421272202,3.944268493900811 L6.717514421272202,6.307239848761416 " />
			<path d="M23.829498525986654,1.554531642473378 L23.829498525986654,3.9110827947578635 " />
			<path d="M24.67802666341051,1.4357139373161774 L24.67802666341051,3.792265089600663 " />
			<path d="M22.27386360737625,0.24753688574416843 L22.27386360737625,-0.14852213144650134 " />
			<path d="M4.737615433949869,-2.208029020837984 L4.737615433949869,-2.604088038028654 " />
			<path d="M1.7677669529663689,-2.208029020837984 L1.7677669529663689,-2.604088038028654 " />
			<path d="M-15.76848122046001,0.24753688574416866 L-15.76848122046001,-0.14852213144650112 " />
			<path d="M-23.546655813512032,2.3070437751356514 L-23.90020920410531,2.7526101694751564 " />
			<path d="M-22.698127676088177,2.18822606997845 L-23.05168106668145,2.6337924643179536 " />
			<path d="M-5.586143571373725,-0.20793098402510157 L-5.939696961967,0.23763541031440338 " />
			<path d="M-4.73761543394987,-0.3267486891823026 L-5.091168824543144,0.11881770515720091 " />
			<path d="M5.868986283848348,6.426057553918616 L5.515432893255074,6.87162394825812 " />
			<path d="M6.717514421272202,6.307239848761416 L6.3639610306789285,6.7528062431009195 " />
			<path d="M23.829498525986658,3.911082794757863 L23.47594513539338,4.356649189097367 " />
			<path d="M24.67802666341051,3.792265089600663 L24.324473272817237,4.237831483940166 " />
			<path d="M-28.545793616376876,-0.7723150835218067 L-28.545793616376876,-1.1683741007124764 " />
			<path d="M28.545793616376876,0.7723150835218067 L28.545793616376876,0.3762560663311369 " />
			<path d="M-24.912341238461273,2.2278319716975172 L-24.912341238461273,-0.14172683301154243 " />
			<path d="M-22.463813101037417,2.1090142665403158 L-22.463813101037417,0.20113568559014072 " />
			<path d="M-6.9518289963229645,-0.28714278746323574 L-6.9518289963229645,-0.9870413659818675 " />
			<path d="M-4.5033008588991095,-0.4059604926204372 L-4.5033008588991095,-1.3299038845835498 " />
			<path d="M4.5033008588991095,6.346845750480483 L4.5033008588991095,3.96080291792971 " />
			<path d="M6.9518289963229645,6.228028045323281 L6.9518289963229645,3.9176629391561573 " />
			<path d="M22.463813101037417,3.83187099131973 L22.463813101037417,1.745765852633753 " />
			<path d="M24.912341238461273,3.7130532861625287 L24.912341238461273,1.4029033340320702 " />
			<path d="M-24.409326086559624,2.728846628443715 L-24.904300833390206,2.2436743323851442 " />
			<path d="M-22.966828252939067,2.6100289232865146 L-22.471853506108484,2.124856627227943 " />
			<path d="M-6.448813844421315,0.2138718692829621 L-6.943788591251898,-0.2713004267756086 " />
			<path d="M-5.006316010800758,0.09505416412576173 L-4.5113412639701735,-0.39011813193280975 " />
			<path d="M5.006316010800758,6.8478604072266815 L4.511341263970174,6.362688111168111 " />
			<path d="M6.448813844421315,6.72904270206948 L6.943788591251899,6.243870406010908 " />
			<path d="M22.966828252939067,4.332885648065928 L22.471853506108484,3.847713352007357 " />
			<path d="M24.409326086559624,4.214067942908727 L24.904300833390206,3.7288956468501557 " />

       </g>
    </g>
    
</svg>
