<?xml version="1.0" encoding="UTF-8" standalone="no"?>
<svg
   xmlns:svg="http://www.w3.org/2000/svg"
   xmlns="http://www.w3.org/2000/svg"
   width="800.0"
   height="200.0"

>
    <g transform="scale(10.380857391955736, -10.380857391955736)   translate(28.899347006970153,-5.9733411393254885)" stroke-width="0.09633115668990051"  fill="none">
       <!-- hidden lines -->
       <g  stroke="rgb(160,160,160)" fill="none" stroke-dasharray="0.09633115668990051,0.09633115668990051" >

       </g>

       <!-- solid lines -->
       <g  stroke="rgb(0,0,0)" fill="none">
			<path d="M-20.7667568261897,-2.6567015921722943 L-7.800357133746822,-4.472360717259761 " />
			<path d="M-4.220458146424488,-4.688814350300278 L-4.073213995089352,-4.677418296818335 L-3.9329571043435134,-4.664408333453972 L-3.8005876693693033,-4.649867960606214 L-3.676955262170056,-4.633890501130837 " />
			<path d="M-3.6769552621700488,-4.6338905011308364 L6.328884062924757,-3.232792748039384 " />
			<path d="M7.507024203162128,-3.0678201305825485 L20.7667568261897,-1.2110861794263492 " />
			<path d="M-4.454772721475249,-4.010097549055532 L-6.434671708797582,-3.7328562370220624 " />
			<path d="M-4.454772721475249,-4.010097549055532 L-4.35528245658245,-4.027073037887574 L-4.314921134945802,-4.036502355513407 L-4.281354520415457,-4.0464402333874006 L-4.254905877838719,-4.0567909643130315 L-4.235829922101902,-4.067454865093202 L-4.224310365086729,-4.078329236533916 L-4.220458146424487,-4.089309352493665 " />
			<path d="M-7.800357133746821,-3.8120680404601965 L-7.798189499089773,-3.8038271609962906 L-7.791698341718646,-3.7956309395722108 L-7.780918837777644,-3.787523792221996 L-7.765909402332588,-3.7795496522795626 L-7.723548568245576,-3.764172289887784 L-7.665532823588857,-3.7498317258541047 L-7.593118034030788,-3.7368383900823607 L-7.5078717610777375,-3.7254735490530524 L-7.411639329101399,-3.7159832172534437 L-7.3065038796388935,-3.7085728317068636 L-7.194741277669433,-3.7034028048815526 L-7.07877084601047,-3.7005850522451618 L-6.961102994284887,-3.7001805696328547 L-6.844284876133919,-3.7021981128716788 L-6.730845251033045,-3.706594008243352 L-6.623239744286023,-3.713273097888372 L-6.5237976901528745,-3.722090799686305 L-6.4346717087975875,-3.732856237022062 " />
			<path d="M-3.2526911934581166,-3.6635459090136937 L-17.394826817189063,-1.6832508230603458 " />
			<path d="M2.68700576850889,1.1287681989934093 L4.2204581464244875,0.9140419165333489 " />
			<path d="M7.800357133746822,0.4127557910553984 L16.829141392239833,-0.8515268869599384 " />
			<path d="M-3.252691193458117,-3.663545909013695 L-3.0999928497100226,-3.6829254649323473 L-2.934464442307532,-3.70011589609076 L-2.7577001003009625,-3.714951649239632 L-2.571402160933056,-3.7272898479660928 L-2.3773647752007387,-3.73701166867166 L-2.177456629200237,-3.7440234849084524 L-1.9736029476584451,-3.74825776905306 L-1.7677669529663682,-3.7496737426344757 L-1.561930958274291,-3.74825776905306 L-1.3580772767324993,-3.7440234849084524 L-1.1581691307319972,-3.73701166867166 L-0.96413174499968,-3.7272898479660928 L-0.7778338056317736,-3.7149516492396324 L-0.6010694636252036,-3.70011589609076 L-0.43554105622271244,-3.6829254649323473 L-0.28284271247462534,-3.6635459090136964 " />
			<path d="M16.829141392239833,-1.267388855010143 L16.96753910380983,-1.2460068100486912 L17.09030333758343,-1.222828196826033 L17.19625180687963,-1.1980762380582215 L17.284364170021785,-1.1719893086389876 L17.353791856785723,-1.1448186399592053 L17.381282783456626,-1.130908335398779 L17.403866240594866,-1.1168259004112586 L17.421487822674123,-1.1026052608160046 L17.434105077759696,-1.0882806753793828 L17.441687609778946,-1.0738866532823952 L17.444217151748084,-1.0594578709850428 " />
			<path d="M17.444217151748084,-1.0594578709850415 L17.441687609778946,-1.0450290886876878 L17.434105077759696,-1.0306350665907005 L17.421487822674123,-1.0163104811540784 L17.403866240594866,-1.0020898415588244 L17.381282783456626,-0.988007406571304 L17.353791856785723,-0.974097102010878 L17.284364170021785,-0.9469264333310954 L17.19625180687963,-0.9208395039118615 L17.09030333758343,-0.8960875451440502 L16.96753910380983,-0.8729089319213919 L16.82914139223984,-0.8515268869599408 " />
			<path d="M16.829141392239833,-1.2673888550101418 L7.800357133746821,-2.5316715330254786 " />
			<path d="M4.693490852951996,-2.9667198306989953 L-0.28284271247461845,-3.6635459090136937 " />
			<path d="M-27.435743110038043,-3.5051223021374276 L-24.346655813512037,-3.937681044052357 " />
			<path d="M-20.7667568261897,-4.438967169530308 L-7.800357133746822,-6.2546262946177755 " />
			<path d="M-27.435743110038047,-3.505122302137427 L-27.574140821608044,-3.4837402571759752 L-27.69690505538164,-3.460561643953317 L-27.802853524677843,-3.4358096851855056 L-27.89096588782,-3.4097227557662717 L-27.960393574583936,-3.382552087086489 L-27.98788450125484,-3.3686417825260633 L-28.01046795839308,-3.354559347538543 L-28.028089540472337,-3.340338707943289 L-28.04070679555791,-3.326014122506667 L-28.04828932757716,-3.3116201004096792 L-28.050818869546298,-3.297191318112327 " />
			<path d="M-28.050818869546298,-3.2971913181123256 L-28.04828932757716,-3.282762535814972 L-28.04070679555791,-3.2683685137179843 L-28.028089540472337,-3.2540439282813627 L-28.01046795839308,-3.2398232886861082 L-27.98788450125484,-3.2257408536985883 L-27.960393574583936,-3.211830549138162 L-27.89096588782,-3.1846598804583794 L-27.802853524677843,-3.1585729510391456 L-27.69690505538164,-3.133820992271334 L-27.574140821608044,-3.110642379048676 L-27.435743110038054,-3.089260334087225 " />
			<path d="M-4.220458146424488,-6.471079927658292 L-4.073213995089352,-6.459683874176347 L-3.9329571043435134,-6.4466739108119855 L-3.8005876693693033,-6.432133537964227 L-3.676955262170056,-6.416156078488851 " />
			<path d="M3.6769552621700488,1.2673888550101426 L-27.435743110038047,-3.089260334087224 " />
			<path d="M-3.6769552621700488,-6.41615607848885 L20.7667568261897,-2.993351756784363 " />
			<path d="M24.34665581351203,-2.4920656313064127 L27.435743110038047,-2.059506889391483 " />
			<path d="M3.6769552621700488,1.267388855010143 L3.8296536059181445,1.2867684109287953 L3.9951820133206346,1.303958842087208 L4.171946355327203,1.3187945952360802 L4.358244294695109,1.3311327939625408 L4.552281680427426,1.3408546146681082 L4.752189826427929,1.3478664309049004 L4.9560435079697225,1.3521007150495081 L5.161879502661799,1.3535166886309236 L5.367715497353875,1.3521007150495081 L5.571569178895668,1.3478664309049004 L5.771477324896171,1.3408546146681082 L5.965514710628488,1.3311327939625408 L6.151812649996394,1.3187945952360802 L6.328576992002965,1.303958842087208 L6.4941053994054565,1.2867684109287951 L6.646803743153537,1.2673888550101449 " />
			<path d="M27.435743110038047,-2.059506889391483 L27.574140821608044,-2.038124844430031 L27.69690505538164,-2.0149462312073725 L27.802853524677843,-1.9901942724395612 L27.89096588782,-1.9641073430203273 L27.960393574583936,-1.936936674340545 L27.98788450125484,-1.9230263697801186 L28.01046795839308,-1.9089439347925983 L28.028089540472337,-1.8947232951973443 L28.04070679555791,-1.8803987097607224 L28.04828932757716,-1.8660046876637348 L28.050818869546298,-1.8515759053663825 " />
			<path d="M28.050818869546298,-1.8515759053663812 L28.04828932757716,-1.8371471230690275 L28.04070679555791,-1.8227531009720401 L28.028089540472337,-1.808428515535418 L28.01046795839308,-1.794207875940164 L27.98788450125484,-1.7801254409526437 L27.960393574583936,-1.7662151363922176 L27.89096588782,-1.739044467712435 L27.802853524677843,-1.7129575382932012 L27.69690505538164,-1.6882055795253899 L27.574140821608044,-1.6650269663027315 L27.435743110038054,-1.6436449213412805 " />
			<path d="M27.435743110038043,-1.6436449213412794 L6.646803743153544,1.2673888550101429 " />
			<path d="M-22.980970388562795,-6.416078118929935 L-21.001071401240463,-6.693319430963404 " />
			<path d="M-21.001071401240463,-6.693319430963404 L-20.901581136347662,-6.710294919795446 L-20.861219814711017,-6.719724237421279 L-20.82765320018067,-6.729662115295273 L-20.80120455760393,-6.740012846220904 L-20.782128601867115,-6.750676747001075 L-20.77060904485194,-6.761551118441789 L-20.7667568261897,-6.772531234401537 " />
			<path d="M-20.7667568261897,-6.772531234401538 L-20.768769459139584,-6.7804723930422774 L-20.774797231260766,-6.788373595089165 " />
			<path d="M-24.338615408440965,-6.511132283055696 L-24.344643180562148,-6.503231081008809 L-24.346655813512033,-6.4952899223680705 " />
			<path d="M-24.346655813512033,-6.49528992236807 L-24.344488178854984,-6.487049042904164 L-24.337997021483858,-6.478852821480084 L-24.327217517542856,-6.470745674129869 L-24.3122080820978,-6.462771534187436 L-24.269847248010787,-6.447394171795657 L-24.21183150335407,-6.433053607761978 L-24.139416713796,-6.420060271990234 L-24.05417044084295,-6.408695430960925 L-23.95793800886661,-6.399205099161317 L-23.852802559404104,-6.391794713614736 L-23.741039957434644,-6.386624686789426 L-23.625069525775682,-6.383806934153035 L-23.507401674050097,-6.383402451540728 L-23.39058355589913,-6.385419994779552 L-23.277143930798257,-6.389815890151225 L-23.169538424051233,-6.396494979796246 L-23.070096369918087,-6.405312681594178 L-22.9809703885628,-6.416078118929935 " />
			<path d="M-6.434671708797582,-8.733023369495353 L-4.454772721475249,-9.010264681528822 " />
			<path d="M-4.454772721475249,-9.010264681528822 L-4.35528245658245,-9.027240170360864 L-4.314921134945802,-9.036669487986698 L-4.281354520415457,-9.046607365860691 L-4.254905877838719,-9.056958096786323 L-4.235829922101902,-9.067621997566492 L-4.224310365086729,-9.078496369007208 L-4.220458146424487,-9.089476484966955 " />
			<path d="M-4.220458146424487,-9.089476484966957 L-4.2224707793743725,-9.097417643607695 L-4.228498551495553,-9.105318845654583 " />
			<path d="M-7.792316728675754,-8.828077533621114 L-7.798344500796935,-8.820176331574226 L-7.800357133746821,-8.812235172933487 " />
			<path d="M-7.800357133746821,-8.812235172933487 L-7.798189499089773,-8.80399429346958 L-7.791698341718646,-8.795798072045502 L-7.780918837777644,-8.787690924695287 L-7.765909402332588,-8.779716784752853 L-7.723548568245576,-8.764339422361074 L-7.665532823588857,-8.749998858327395 L-7.593118034030788,-8.737005522555652 L-7.5078717610777375,-8.725640681526343 L-7.411639329101399,-8.716150349726735 L-7.3065038796388935,-8.708739964180154 L-7.194741277669433,-8.703569937354843 L-7.07877084601047,-8.700752184718452 L-6.961102994284887,-8.700347702106145 L-6.844284876133919,-8.70236524534497 L-6.730845251033045,-8.706761140716642 L-6.623239744286023,-8.713440230361662 L-6.5237976901528745,-8.722257932159595 L-6.4346717087975875,-8.733023369495353 " />
			<path d="M5.586143571373725,-2.4158820453041705 L7.566042558696059,-2.6931233573376394 " />
			<path d="M7.566042558696059,-2.693123357337639 L7.665532823588857,-2.7100988461696813 L7.705894145225505,-2.719528163795514 L7.7394607597558505,-2.729466041669508 L7.765909402332588,-2.7398167725951392 L7.784985358069405,-2.7504806733753093 L7.796504915084578,-2.7613550448160242 L7.800357133746821,-2.7723351607757722 " />
			<path d="M7.800357133746821,-2.772335160775773 L7.798344500796935,-2.780276319416512 L7.792316728675754,-2.7881775214633997 " />
			<path d="M4.228498551495553,-2.5109362094299312 L4.2224707793743725,-2.5030350073830436 L4.220458146424487,-2.4950938487423047 " />
			<path d="M4.220458146424487,-2.495093848742304 L4.222625781081534,-2.4868529692783983 L4.229116938452662,-2.4786567478543184 L4.239896442393663,-2.470549600504104 L4.254905877838719,-2.4625754605616703 L4.297266711925731,-2.4471980981698915 L4.35528245658245,-2.4328575341362124 L4.427697246140519,-2.4198641983644684 L4.51294351909357,-2.40849935733516 L4.609175951069909,-2.3990090255355514 L4.714311400532414,-2.3915986399889713 L4.8260740025018745,-2.3864286131636603 L4.942044434160837,-2.3836108605272694 L5.0597122858864205,-2.3832063779149624 L5.176530404037388,-2.3852239211537865 L5.289970029138262,-2.38961981652546 L5.397575535885284,-2.39629890617048 L5.497017590018433,-2.4051166079684125 L5.58614357137372,-2.4158820453041696 " />
			<path d="M22.13244225113894,-4.732827295869589 L24.112341238461273,-5.010068607903058 " />
			<path d="M24.11234123846127,-5.010068607903057 L24.21183150335407,-5.027044096735099 L24.252192824990715,-5.036473414360932 L24.285759439521062,-5.046411292234926 L24.3122080820978,-5.056762023160557 L24.331284037834617,-5.0674259239407276 L24.34280359484979,-5.078300295381442 L24.346655813512033,-5.08928041134119 " />
			<path d="M24.346655813512033,-5.089280411341191 L24.344643180562148,-5.09722156998193 L24.338615408440965,-5.1051227720288175 " />
			<path d="M20.774797231260766,-4.827881459995349 L20.768769459139584,-4.819980257948462 L20.7667568261897,-4.812039099307723 " />
			<path d="M20.7667568261897,-4.8120390993077224 L20.768924460846748,-4.8037982198438165 L20.775415618217874,-4.795601998419737 L20.786195122158876,-4.787494851069522 L20.80120455760393,-4.7795207111270885 L20.843565391690944,-4.76414334873531 L20.901581136347662,-4.749802784701631 L20.973995925905733,-4.736809448929887 L21.059242198858783,-4.725444607900578 L21.155474630835123,-4.71595427610097 L21.260610080297628,-4.708543890554389 L21.372372682267088,-4.7033738637290785 L21.48834311392605,-4.700556111092688 L21.606010965651635,-4.700151628480381 L21.7228290838026,-4.702169171719205 L21.836268708903475,-4.706565067090878 L21.9438742156505,-4.7132441567358985 L22.043316269783645,-4.722061858533831 L22.132442251138933,-4.732827295869588 " />
			<path d="M-3.2526911934581166,-2.8714278746323556 L-14.566399692442877,-1.2871918058696767 " />
			<path d="M-3.252691193458117,-2.8714278746323556 L-3.0999928497100226,-2.890807430551008 L-2.9344644423075317,-2.9079978617094207 L-2.757700100300962,-2.922833614858293 L-2.5714021609330553,-2.9351718135847533 L-2.377364775200738,-2.9448936342903207 L-2.177456629200236,-2.951905450527113 L-1.9736029476584438,-2.9561397346717206 L-1.7677669529663662,-2.9575557082531363 L-1.5619309582742888,-2.9561397346717206 L-1.3580772767324965,-2.951905450527113 L-1.1581691307319946,-2.9448936342903207 L-0.9641317449996774,-2.9351718135847533 L-0.7778338056317711,-2.9228336148582925 L-0.6010694636252014,-2.90799786170942 L-0.43554105622271044,-2.8908074305510074 L-0.28284271247462267,-2.8714278746323565 " />
			<path d="M15.4856385079854,-0.663398853794371 L7.800357133746821,-1.7395534986441406 " />
			<path d="M4.2204581464244875,-2.240839624122091 L-0.2828427124746167,-2.8714278746323556 " />
			<path d="M-28.284271247461902,-3.505122302137427 L-24.346655813512037,-4.056498749209558 " />
			<path d="M-20.7667568261897,-4.557784874687509 L-7.800357133746822,-6.373443999774976 " />
			<path d="M-28.284271247461902,-3.505122302137428 L-28.4226689590319,-3.483740257175976 L-28.545433192805497,-3.460561643953318 L-28.6513816621017,-3.4358096851855064 L-28.739494025243854,-3.4097227557662726 L-28.80892171200779,-3.38255208708649 L-28.836412638678695,-3.368641782526064 L-28.858996095816934,-3.354559347538544 L-28.876617677896192,-3.34033870794329 L-28.889234932981765,-3.3260141225066677 L-28.896817465001014,-3.31162010040968 L-28.899347006970153,-3.297191318112328 " />
			<path d="M-28.899347006970153,-3.2971913181123265 L-28.896817465001014,-3.282762535814973 L-28.889234932981765,-3.268368513717985 L-28.876617677896192,-3.2540439282813636 L-28.858996095816934,-3.239823288686109 L-28.836412638678695,-3.225740853698589 L-28.80892171200779,-3.211830549138163 L-28.739494025243854,-3.1846598804583803 L-28.6513816621017,-3.1585729510391465 L-28.545433192805497,-3.133820992271335 L-28.4226689590319,-3.110642379048677 L-28.28427124746191,-3.089260334087226 " />
			<path d="M-4.2204581464244875,-6.589897632815493 L-4.073213995089351,-6.578501579333548 L-3.9329571043435134,-6.5654916159691865 L-3.8005876693693033,-6.550951243121428 L-3.676955262170056,-6.534973783646052 " />
			<path d="M3.6769552621700488,1.3862065601673443 L-28.284271247461902,-3.089260334087224 " />
			<path d="M-3.6769552621700488,-6.534973783646051 L20.7667568261897,-3.1121694619415647 " />
			<path d="M24.34665581351204,-2.610883336463613 L28.284271247461902,-2.059506889391483 " />
			<path d="M3.6769552621700488,1.3862065601673441 L3.8296536059181445,1.4055861160859964 L3.9951820133206346,1.422776547244409 L4.171946355327203,1.4376123003932813 L4.358244294695109,1.4499504991197418 L4.552281680427426,1.4596723198253092 L4.752189826427929,1.4666841360621015 L4.9560435079697225,1.4709184202067092 L5.161879502661799,1.4723343937881246 L5.367715497353875,1.4709184202067092 L5.571569178895668,1.4666841360621015 L5.771477324896171,1.4596723198253092 L5.965514710628488,1.4499504991197418 L6.151812649996394,1.4376123003932813 L6.328576992002965,1.422776547244409 L6.4941053994054565,1.4055861160859962 L6.646803743153537,1.386206560167346 " />
			<path d="M28.284271247461902,-2.0595068893914825 L28.4226689590319,-2.0381248444300306 L28.545433192805497,-2.014946231207372 L28.6513816621017,-1.9901942724395607 L28.739494025243854,-1.9641073430203269 L28.80892171200779,-1.9369366743405445 L28.836412638678695,-1.9230263697801182 L28.858996095816934,-1.9089439347925978 L28.876617677896192,-1.8947232951973438 L28.889234932981765,-1.880398709760722 L28.896817465001014,-1.8660046876637344 L28.899347006970153,-1.851575905366382 " />
			<path d="M28.899347006970153,-1.8515759053663807 L28.896817465001014,-1.837147123069027 L28.889234932981765,-1.8227531009720397 L28.876617677896192,-1.8084285155354176 L28.858996095816934,-1.7942078759401636 L28.836412638678695,-1.7801254409526432 L28.80892171200779,-1.7662151363922172 L28.739494025243854,-1.7390444677124346 L28.6513816621017,-1.7129575382932007 L28.545433192805497,-1.6882055795253894 L28.4226689590319,-1.665026966302731 L28.28427124746191,-1.64364492134128 " />
			<path d="M28.284271247461902,-1.6436449213412796 L6.646803743153548,1.386206560167344 " />
			<path d="M-23.334523779156072,-6.960659267567106 L-21.35462479183374,-7.237900579600575 " />
			<path d="M-21.354624791833736,-7.237900579600574 L-21.31156158368409,-7.245519881714245 L-21.282151836774545,-7.254320782606773 L-21.273089850730052,-7.259018984961641 L-21.267969032003766,-7.26383241629322 L-21.266858104712092,-7.268696477787758 L-21.26977197809135,-7.273545891147735 " />
			<path d="M-21.26977197809135,-7.273545891147735 L-21.27846430323434,-7.279225998733318 L-21.292669426063195,-7.284683886950191 L-21.33643130715414,-7.294521782231909 L-21.39772632324262,-7.302310684092145 L-21.471888496384647,-7.30745767573918 L-21.55327235838003,-7.309570951263893 L-21.635682702353908,-7.308489641192437 L-21.7128461822518,-7.304296058398937 L-21.778888860545663,-7.297309432179175 " />
			<path d="M-23.758787847867996,-7.020068120145706 L-23.81498397081201,-7.00915042258896 L-23.833009875162936,-7.00288923746406 L-23.843640661610383,-6.996304579114266 " />
			<path d="M-23.843640661610383,-6.996304579114265 L-23.846625424433892,-6.989765780435755 L-23.842312729525084,-6.983241527390389 L-23.830807493207686,-6.976890537591885 L-23.812389607086285,-6.9708673136229224 L-23.756765383137395,-6.960378740521328 L-23.68081989216202,-6.952790236391296 L-23.591898390277336,-6.948835742190552 L-23.498601140609942,-6.948897726612697 L-23.409951617562783,-6.952970194680939 L-23.33452377915607,-6.960659267567105 " />
			<path d="M-21.778888860545663,-7.2973094321791745 L-23.758787847867996,-7.020068120145705 " />
			<path d="M-6.788225099390857,-9.277604518132524 L-4.8083261120685235,-9.554845830165993 " />
			<path d="M-4.808326112068522,-9.554845830165993 L-4.765262903918874,-9.562465132279662 L-4.735853157009332,-9.571266033172192 L-4.726791170964839,-9.57596423552706 L-4.721670352238553,-9.580777666858637 L-4.72055942494688,-9.585641728353176 L-4.723473298326136,-9.590491141713152 " />
			<path d="M-4.7234732983261365,-9.590491141713153 L-4.732165623469128,-9.596171249298735 L-4.7463707462979805,-9.601629137515609 L-4.790132627388928,-9.611467032797327 L-4.851427643477406,-9.619255934657563 L-4.925589816619435,-9.624402926304597 L-5.006973678614819,-9.626516201829311 L-5.089384022588694,-9.625434891757854 L-5.166547502486586,-9.621241308964356 L-5.23259018078045,-9.614254682744592 " />
			<path d="M-7.212489168102786,-9.337013370711123 L-7.268685291046796,-9.326095673154377 L-7.286711195397726,-9.319834488029478 L-7.297341981845171,-9.313249829679684 " />
			<path d="M-7.297341981845171,-9.313249829679684 L-7.300326744668681,-9.306711031001173 L-7.296014049759871,-9.300186777955807 L-7.284508813442475,-9.293835788157303 L-7.266090927321074,-9.28781256418834 L-7.210466703372185,-9.277323991086746 L-7.134521212396808,-9.269735486956714 L-7.045599710512124,-9.26578099275597 L-6.952302460844731,-9.265842977178114 L-6.863652937797572,-9.269915445246356 L-6.788225099390859,-9.277604518132522 " />
			<path d="M-5.232590180780452,-9.614254682744594 L-7.212489168102786,-9.337013370711125 " />
			<path d="M5.232590180780452,-2.960463193941341 L7.212489168102786,-3.23770450597481 " />
			<path d="M7.212489168102786,-3.2377045059748095 L7.255552376252433,-3.2453238080884805 L7.284962123161975,-3.2541247089810086 L7.294024109206468,-3.258822911335877 L7.299144927932755,-3.2636363426674553 L7.300255855224427,-3.268500404161993 L7.297341981845172,-3.2733498175219697 " />
			<path d="M7.297341981845171,-3.27334981752197 L7.288649656702179,-3.2790299251075523 L7.274444533873327,-3.2844878133244255 L7.230682652782379,-3.2943257086061437 L7.1693876366939016,-3.3021146104663806 L7.095225463551873,-3.3072616021134142 L7.013841601556488,-3.3093748776381284 L6.931431257582613,-3.3082935675666714 L6.854267777684721,-3.3040999847731722 L6.788225099390857,-3.2971133585534105 " />
			<path d="M4.808326112068522,-3.019872046519941 L4.752129989124511,-3.008954348963196 L4.734104084773581,-3.0026931638382957 L4.7234732983261365,-2.9961085054885013 " />
			<path d="M4.7234732983261365,-2.9961085054885013 L4.720488535502627,-2.989569706809991 L4.724801230411436,-2.9830454537646243 L4.736306466728832,-2.97669446396612 L4.754724352850233,-2.970671239997158 L4.8103485767991225,-2.9601826668955638 L4.886294067774499,-2.952594162765532 L4.975215569659183,-2.9486396685647875 L5.0685128193265765,-2.9487016529869323 L5.157162342373735,-2.9527741210551737 L5.2325901807804485,-2.9604631939413406 " />
			<path d="M6.788225099390857,-3.2971133585534105 L4.8083261120685235,-3.0198720465199416 " />
			<path d="M21.778888860545663,-5.27740844450676 L23.758787847867996,-5.554649756540229 " />
			<path d="M23.758787847867996,-5.554649756540228 L23.801851056017643,-5.562269058653899 L23.831260802927186,-5.571069959546427 L23.84032278897168,-5.575768161901295 L23.845443607697966,-5.580581593232874 L23.84655453498964,-5.585445654727412 L23.843640661610383,-5.590295068087388 " />
			<path d="M23.843640661610383,-5.590295068087388 L23.83494833646739,-5.595975175672971 L23.820743213638536,-5.601433063889845 L23.776981332547592,-5.611270959171563 L23.715686316459113,-5.619059861031799 L23.641524143317085,-5.624206852678833 L23.5601402813217,-5.626320128203547 L23.477729937347824,-5.6252388181320905 L23.400566457449933,-5.621045235338591 L23.33452377915607,-5.614058609118829 " />
			<path d="M21.354624791833736,-5.33681729708536 L21.298428668889724,-5.325899599528614 L21.280402764538795,-5.319638414403713 L21.26977197809135,-5.31305375605392 " />
			<path d="M21.26977197809135,-5.313053756053919 L21.26678721526784,-5.306514957375409 L21.27109991017665,-5.2999907043300425 L21.282605146494046,-5.293639714531539 L21.301023032615447,-5.287616490562576 L21.356647256564337,-5.277127917460982 L21.43259274753971,-5.26953941333095 L21.521514249424396,-5.265584919130205 L21.61481149909179,-5.2656469035523505 L21.70346102213895,-5.269719371620592 L21.778888860545663,-5.277408444506759 " />
			<path d="M23.334523779156072,-5.614058609118828 L21.35462479183374,-5.336817297085359 " />
			<path d="M-28.899347006970153,-0.7228077063729728 L-28.896817465001014,-0.7083789240756191 L-28.889234932981765,-0.6939849019786317 L-28.876617677896192,-0.6796603165420096 L-28.858996095816934,-0.6654396769467557 L-28.836412638678695,-0.6513572419592353 L-28.80892171200779,-0.6374469373988092 L-28.739494025243854,-0.6102762687190266 L-28.6513816621017,-0.5841893392997928 L-28.545433192805497,-0.5594373805319814 L-28.4226689590319,-0.5362587673093231 L-28.28427124746191,-0.5148767223478721 " />
			<path d="M3.6769552621700488,3.9605901719066976 L-28.284271247461902,-0.5148767223478705 " />
			<path d="M3.6769552621700488,3.9605901719066976 L3.8296536059181445,3.97996972782535 L3.9951820133206346,3.9971601589837626 L4.171946355327203,4.011995912132635 L4.358244294695109,4.024334110859095 L4.552281680427426,4.034055931564663 L4.752189826427929,4.0410677478014545 L4.9560435079697225,4.045302031946062 L5.161879502661799,4.046718005527478 L5.367715497353875,4.045302031946062 L5.571569178895668,4.0410677478014545 L5.771477324896171,4.034055931564663 L5.965514710628488,4.024334110859095 L6.151812649996394,4.011995912132635 L6.328576992002965,3.997160158983762 L6.4941053994054565,3.9799697278253494 L6.646803743153537,3.9605901719066994 " />
			<path d="M28.899347006970153,0.7228077063729728 L28.896817465001014,0.7372364886703264 L28.889234932981765,0.7516305107673138 L28.876617677896192,0.7659550962039359 L28.858996095816934,0.7801757357991899 L28.836412638678695,0.7942581707867102 L28.80892171200779,0.8081684753471363 L28.739494025243854,0.8353391440269189 L28.6513816621017,0.8614260734461527 L28.545433192805497,0.8861780322139641 L28.4226689590319,0.9093566454366224 L28.28427124746191,0.9307386903980734 " />
			<path d="M28.284271247461902,0.9307386903980739 L6.646803743153548,3.9605901719066976 " />
			<path d="M-27.435743110038047,-3.505122302137428 L-27.435743110038047,-3.0892603340872244 " />
			<path d="M-3.6769552621700488,-6.41615607848885 L-3.6769552621700488,-4.633890501130836 " />
			<path d="M27.435743110038047,-2.059506889391483 L27.435743110038047,-1.6436449213412794 " />
			<path d="M-21.00107140124046,-2.18822606997845 L-21.00107140124046,-6.693319430963404 " />
			<path d="M-22.980970388562795,-2.4654673820119193 L-22.980970388562795,-6.416078118929935 " />
			<path d="M-4.454772721475248,-4.010097549055532 L-4.454772721475248,-9.010264681528822 " />
			<path d="M-6.434671708797582,-3.7328562370220624 L-6.434671708797582,-8.733023369495353 " />
			<path d="M7.56604255869606,1.1386696744231755 L7.56604255869606,-2.6931233573376394 " />
			<path d="M5.586143571373725,1.3474529689825392 L5.586143571373725,-2.4158820453041705 " />
			<path d="M24.112341238461273,-1.178275576142243 L24.112341238461273,-5.010068607903058 " />
			<path d="M22.13244225113894,-0.901034264108774 L22.13244225113894,-4.732827295869589 " />
			<path d="M-3.2526911934581175,-3.663545909013695 L-3.2526911934581175,-2.8714278746323556 " />
			<path d="M-0.2828427124746167,-3.663545909013695 L-0.2828427124746167,-2.8714278746323556 " />
			<path d="M16.829141392239833,-1.2673888550101433 L16.829141392239833,-0.8515268869599398 " />
			<path d="M-22.980970388562795,-6.416078118929936 L-23.334523779156072,-6.960659267567108 " />
			<path d="M-21.00107140124046,-6.693319430963405 L-21.354624791833736,-7.237900579600577 " />
			<path d="M-6.434671708797582,-8.733023369495353 L-6.788225099390857,-9.277604518132526 " />
			<path d="M-4.454772721475248,-9.010264681528822 L-4.808326112068523,-9.554845830165995 " />
			<path d="M5.586143571373725,-2.415882045304171 L5.232590180780451,-2.9604631939413424 " />
			<path d="M7.56604255869606,-2.69312335733764 L7.212489168102786,-3.2377045059748113 " />
			<path d="M22.13244225113894,-4.73282729586959 L21.778888860545663,-5.277408444506761 " />
			<path d="M24.112341238461276,-5.010068607903059 L23.758787847868,-5.55464975654023 " />
			<path d="M-28.284271247461902,-0.5148767223478712 L-28.284271247461902,-3.089260334087225 " />
			<path d="M3.6769552621700488,3.9605901719066976 L3.6769552621700488,1.3862065601673441 " />
			<path d="M6.646803743153551,3.9605901719066976 L6.646803743153551,1.3862065601673441 " />
			<path d="M28.284271247461906,0.9307386903980743 L28.284271247461906,-1.6436449213412792 " />
			<path d="M-20.7667568261897,-6.772531234401538 L-20.7667568261897,-2.1554154666943437 " />
			<path d="M-24.346655813512037,-6.49528992236807 L-24.346655813512037,-2.6567015921722943 " />
			<path d="M-4.2204581464244875,-9.089476484966957 L-4.2204581464244875,-4.0893093524936655 " />
			<path d="M-7.800357133746822,-8.812235172933487 L-7.800357133746822,-3.812068040460196 " />
			<path d="M7.800357133746822,-2.7723351607757736 L7.800357133746822,1.105859071139068 " />
			<path d="M4.2204581464244875,-2.495093848742304 L4.2204581464244875,1.3223127041795852 " />
			<path d="M24.346655813512037,-5.089280411341192 L24.346655813512037,-1.2110861794263506 " />
			<path d="M20.7667568261897,-4.8120390993077224 L20.7667568261897,-0.7098000539483988 " />
			<path d="M-21.26977197809135,-7.273545891147736 L-20.774797231260766,-6.7883735950891655 " />
			<path d="M-23.843640661610383,-6.996304579114267 L-24.338615408440965,-6.511132283055696 " />
			<path d="M-4.723473298326137,-9.590491141713153 L-4.228498551495554,-9.105318845654583 " />
			<path d="M-7.297341981845171,-9.313249829679686 L-7.792316728675755,-8.828077533621114 " />
			<path d="M7.297341981845172,-3.2733498175219715 L7.792316728675755,-2.7881775214634006 " />
			<path d="M4.723473298326137,-2.996108505488503 L4.228498551495553,-2.5109362094299317 " />
			<path d="M23.843640661610383,-5.590295068087389 L24.338615408440965,-5.105122772028818 " />
			<path d="M21.26977197809135,-5.313053756053921 L20.774797231260766,-4.82788145999535 " />
			<path d="M-28.899347006970153,-0.722807706372973 L-28.899347006970153,-3.2971913181123265 " />
			<path d="M28.899347006970153,0.722807706372973 L28.899347006970153,-1.8515759053663805 " />

       </g>
    </g>
    
</svg>
