<?xml version="1.0" encoding="UTF-8" standalone="no"?>
<svg
   xmlns:svg="http://www.w3.org/2000/svg"
   xmlns="http://www.w3.org/2000/svg"
   width="800.0"
   height="200.0"

>
    <g transform="scale(8.611690551736679, -8.611690551736679)   translate(-0.8289540949843964,-16.509987198180376)" stroke-width="0.11612121847531258"  fill="none">
       <!-- hidden lines -->
       <g  stroke="rgb(160,160,160)" fill="none" stroke-dasharray="0.11612121847531258,0.11612121847531258" >

       </g>

       <!-- solid lines -->
       <g  stroke="rgb(0,0,0)" fill="none">
			<path d="M23.82949852598665,-1.0594578709850413 L22.980970388562795,-0.9406401658278404 " />
			<path d="M25.667976157071678,-0.8020195098111061 L25.80769603820253,-0.82514917083312 L25.86676899495526,-0.83785406642123 L25.91808734556117,-0.8512032046600996 L25.961295148758804,-0.8651039966600275 L25.996092717598128,-0.8794600272911215 L26.02223869805272,-0.8941717239133451 L26.039551743038064,-0.9091370470068789 " />
			<path d="M26.039551743038068,-0.9091370470068806 L26.04761270865789,-0.9231683915382026 L26.047906715259792,-0.9372450046168281 L26.040432004755743,-0.9512827115177142 L26.025233274097914,-0.9651975701653052 L26.002401408001752,-0.9789063730867436 L25.972072935477478,-0.992327144972334 L25.934429213419776,-1.0053796328679734 L25.88969534213766,-1.0179857860683104 L25.78006794041101,-1.0415606811911184 L25.645808991170753,-1.0624887847470612 L25.490125037198542,-1.0802702651809932 L25.3167343204563,-1.0944804425884829 L25.129777978308198,-1.1047799314607818 L24.933721139617465,-1.1109227463206834 L24.733246282866567,-1.1127621766601772 L24.533141403257723,-1.110254290867174 L24.338185659729035,-1.103458985456076 L24.15303523300954,-1.092538554543129 L23.982112120796042,-1.0777538137321687 L23.82949852598667,-1.059457870985044 " />
			<path d="M22.980970388562792,-0.9406401658278406 L22.8831450362447,-0.9252987572483207 L22.798302658021367,-0.908510064688685 L22.727526279362984,-0.8904883982853777 L22.67171937118091,-0.8714638072677907 L22.631594316888236,-0.8516791433459243 L22.617580564389677,-0.8415804157026738 L22.60766331872047,-0.8313869606724937 L22.60187425394694,-0.8211313344893966 L22.600231859398455,-0.8108462919519245 L22.60274138061553,-0.8005646818096612 L22.6093948025964,-0.7903193418496804 " />
			<path d="M22.6093948025964,-0.7903193418496796 L22.62332485415932,-0.7777454416222568 L22.643493730658363,-0.7653385222445425 L22.669802887468368,-0.7531592036137085 L22.70212377870845,-0.7412669935753808 L22.78414048662501,-0.7185746327320378 L22.887942886054073,-0.697704395211142 L23.011504751354867,-0.6790636686128492 L23.152414151579066,-0.6630163204238818 L23.307920531428046,-0.6498755953143602 L23.474988402166606,-0.6398980005933799 L23.65035659444509,-0.6332782991794096 L23.83060191641317,-0.6301457078228615 L24.01220597451723,-0.6305613747916331 L24.191623852637594,-0.6345171862552661 L24.3653533089469,-0.6419359246671358 L24.530003139765213,-0.6526727760530472 L24.682359375947428,-0.6665181567839231 L24.819448019647808,-0.683201804653904 " />
			<path d="M24.819448019647815,-0.6832018046539055 L25.66797615707167,-0.8020195098111064 " />
			<path d="M2.0406264851144784,1.7850819763182244 L1.9789759411103134,1.7760854489633333 L1.9202010775566407,1.7667647630601464 L1.8644012034761202,1.7571356673174077 L1.8116706011966823,1.7472144315489373 L1.7620983670472676,1.7370178191833197 L1.7157682608161067,1.7265630589395562 L1.6727585642258853,1.7158678157165368 L1.6331419486649328,1.7049501607455222 L1.596985352397919,1.6938285410560652 L1.5643498674635308,1.682521748306963 L1.5352906364502301,1.671048887034908 L1.5098567593245134,1.6594293423744826 L1.4880912104690842,1.6476827473040423 L1.470030766071144,1.6358289494728302 " />
			<path d="M2.040626485114476,1.7850819763182235 L5.606450764469518,2.284397248470663 " />
			<path d="M1.4700307660711418,1.6358289494728286 L3.0405591591021546,1.4159109864566444 " />
			<path d="M5.606450764469518,2.2843972484706634 L6.338501572038394,2.1818896318371315 " />
			<path d="M3.0405591591021546,1.4159109864566446 L3.1689791823065976,1.4202567454596484 L3.3001383338961743,1.4224802650202446 L3.432254235640995,1.4225513287729679 L3.56353150762103,1.4204689710018599 L3.692186166417504,1.4162614897639993 L3.8164698684323266,1.40998606233501 L3.934693668882641,1.4017279682024235 L4.045250973599277,1.3915994301659755 L4.146639371727224,1.37973808929362 L4.237481052634157,1.3663051344577457 L4.31654152957285,1.3514831118701296 L4.382746415653541,1.3354734443828022 L4.435196024150352,1.3184936942661147 L4.473177594731902,1.3007746066612955 L4.48657367887658,1.2917127551671561 L4.496174979468584,1.2825569738852933 L4.501948849703326,1.2733383947440866 L4.50387565698921,1.2640883632002224 " />
			<path d="M5.947441683157418,2.127130294430908 L6.338501572038393,2.181889631837131 " />
			<path d="M4.50387565698921,1.2110056915945584 L12.162236636408617,0.13862065601673468 " />
			<path d="M5.94744168315742,2.1271302944309083 L5.929632608587404,2.1245077546038034 L5.912849485536717,2.1217716590820404 L5.897134480092529,2.1189288820595307 L5.882527074792591,2.1159865657578596 L5.869063969428915,2.1129521024821 L5.856778988842837,2.1098331160483093 L5.845702997943157,2.106637442629377 L5.83586382416082,2.103373111067346 L5.82728618753501,2.1000483227016673 L5.819991638606264,2.096671430764075 L5.813998504272687,2.0932509193918394 L5.809321841745262,2.0897953823121407 L5.805973400717964,2.0863135012510945 L5.803961593847713,2.0828140241217037 " />
			<path d="M5.803961593847713,2.0828140241217032 L5.80330537813408,2.0788049404923106 L5.804403101126569,2.0747975131095857 L5.8072511619122915,2.0708048877279714 L5.811840217862136,2.0668401615462053 L5.818155215277834,2.062916340243952 L5.826175438773327,2.059046295318659 L5.835874579228426,2.055242721862566 L5.847220820091872,2.051518096918397 L5.860176941750678,2.0478846385503204 L5.874700443623399,2.0443542657644533 L5.890743683576802,2.04093855941038 L5.908254034208623,2.03764872419194 L5.927174055483734,2.034495551911907 L5.94744168315742,2.031489386071125 " />
			<path d="M12.162236636408617,0.13862065601673465 L12.29065665961306,0.14296641501973845 L12.421815811202636,0.14518993458033466 L12.553931712947456,0.14526099833305803 L12.685208984927492,0.14317864056195007 L12.813863643723966,0.13897115932408943 L12.938147345738788,0.13269573189509998 L13.056371146189104,0.1244376377625136 L13.16692845090574,0.11430909972606554 L13.268316849033685,0.10244775885371009 L13.359158529940618,0.08901480401783589 L13.438219006879311,0.07419278143021975 L13.504423892960002,0.0581831139428924 L13.556873501456813,0.04120336382620492 L13.594855072038364,0.02348427622138556 L13.60825115618304,0.014422424727246287 L13.617852456775047,0.005266643445383443 L13.623626327009788,-0.003951935695823212 L13.625553134295671,-0.013201967239687366 " />
			<path d="M5.947441683157422,2.031489386071125 L27.094236759091935,-0.9296542125141438 " />
			<path d="M13.625553134295671,-0.06628463884535116 L21.283914113715078,-1.1386696744231752 " />
			<path d="M27.09423675909193,-0.929654212514144 L27.13535646610926,-0.9348213662107658 L27.179938462337187,-0.9392986325332207 L27.227468890826195,-0.9430344060216973 L27.277399910675026,-0.9459856277436354 L27.329156011504676,-0.948118281595683 L27.382140646853756,-0.9494077863770072 L27.435743110038043,-0.9498392791148971 L27.48934557322233,-0.9494077863770072 L27.54233020857141,-0.9481182815956835 L27.594086309401064,-0.9459856277436354 L27.644017329249895,-0.9430344060216969 L27.691547757738903,-0.9392986325332211 L27.73612975396683,-0.9348213662107663 L27.777249460984148,-0.9296542125141449 " />
			<path d="M21.28391411371508,-1.138669674423175 L21.412334136919526,-1.1343239154201712 L21.543493288509104,-1.132100395859575 L21.675609190253923,-1.1320293321068517 L21.806886462233958,-1.1341116898779595 L21.935541121030433,-1.1383191711158203 L22.059824823045254,-1.1445945985448098 L22.17804862349557,-1.152852692677396 L22.288605928212206,-1.162981230713844 L22.38999432634015,-1.1748425715861996 L22.480836007247085,-1.188275526422074 L22.559896484185778,-1.20309754900969 L22.62610137026647,-1.2191072164970174 L22.67855097876328,-1.2360869666137049 L22.71653254934483,-1.253806054218524 L22.729928633489507,-1.2628679057126635 L22.739529934081514,-1.2720236869945263 L22.745303804316254,-1.281242266135733 L22.747230611602138,-1.2904922976795972 " />
			<path d="M28.16830934986513,-0.8748948751079206 L27.777249460984155,-0.929654212514144 " />
			<path d="M22.747230611602138,-1.3435749692852614 L24.26865606911917,-1.5566171460346916 " />
			<path d="M28.168309349865126,-0.8748948751079205 L28.900360157434005,-0.9774024917414528 " />
			<path d="M24.268656069119174,-1.5566171460346951 L24.3533091179372,-1.5540881779747813 L24.437196585911824,-1.5510403915167617 L24.520176732476514,-1.5474789363568862 L24.602109350121495,-1.5434098301123766 L24.682856001295583,-1.5388399481537554 L24.76228025231731,-1.5337770119878615 L24.840247903900337,-1.528229576211202 L24.916627217903386,-1.5222070140556636 L24.9912891399218,-1.515719501551024 L25.064107517344453,-1.5087780003310045 L25.13495931250769,-1.5013942391119341 L25.203724810586046,-1.493580693875312 L25.270287821868582,-1.4853505667877447 L25.334535878078963,-1.4767177638938929 " />
			<path d="M28.900360157434005,-0.9774024917414521 L25.334535878078967,-1.476717763893891 " />
			<path d="M5.8689862838483435,1.4555168881757115 L5.020458146424486,1.5743345933329123 " />
			<path d="M7.707463914933368,1.712955249349647 L7.847183796064222,1.6898255883276332 L7.9062567528169545,1.677120692739523 L7.95757510342286,1.6637715545006535 L8.000782906620497,1.6498707625007258 L8.03558047545982,1.6355147318696317 L8.061726455914412,1.620803035247408 L8.079039500899757,1.6058377121538743 " />
			<path d="M8.079039500899757,1.6058377121538727 L8.087100466519582,1.5918063676225507 L8.087394473121481,1.577729754543925 L8.079919762617434,1.5636920476430392 L8.064721031959605,1.549777188995448 L8.041889165863443,1.5360683860740096 L8.011560693339167,1.522647614188419 L7.973916971281468,1.5095951262927798 L7.929183099999353,1.4969889730924428 L7.8195556982726995,1.4734140779696348 L7.685296749032444,1.452485974413692 L7.529612795060235,1.43470449397976 L7.356222078317989,1.4204943165722703 L7.16926573616989,1.4101948276999714 L6.973208897479156,1.4040520128400698 L6.77273404072826,1.4022125825005762 L6.572629161119415,1.4047204682935792 L6.377673417590727,1.4115157737046773 L6.192522990871231,1.422436204617624 L6.021599878657733,1.4372209454285847 L5.8689862838483595,1.4555168881757095 " />
			<path d="M5.020458146424487,1.5743345933329125 L4.922632794106393,1.5896760019124323 L4.83779041588306,1.6064646944720682 L4.767014037224678,1.6244863608753755 L4.711207129042602,1.6435109518929623 L4.671082074749927,1.6632956158148289 L4.65706832225137,1.6733943434580794 L4.647151076582161,1.6835877984882595 L4.6413620118086305,1.6938434246713567 L4.639719617260149,1.7041284672088286 L4.642229138477224,1.714410077351092 L4.648882560458095,1.7246554173110729 " />
			<path d="M4.6488825604580954,1.7246554173110735 L4.662812612021015,1.7372293175384963 L4.682981488520056,1.7496362369162106 L4.709290645330061,1.7618155555470447 L4.741611536570143,1.7737077655853724 L4.823628244486702,1.7964001264287155 L4.9274306439157645,1.817270363949611 L5.0509925092165595,1.835911090547904 L5.19190190944076,1.8519584387368713 L5.3474082892897385,1.865099163846393 L5.514476160028298,1.875076758567373 L5.689844352306782,1.8816964599813435 L5.87008967427486,1.8848290513378918 L6.051693732378923,1.88441338436912 L6.231111610499285,1.880457572905487 L6.4048410668085936,1.8730388344936175 L6.569490897626905,1.8623019831077061 L6.721847133809121,1.84845660237683 L6.858935777509501,1.8317729545068493 " />
			<path d="M6.85893577750951,1.8317729545068477 L7.707463914933367,1.712955249349647 " />
			<path d="M1.0107165002642118,0.11590974258209222 L1.0423673865927636,0.23125961834688089 L1.074230905955053,0.3456850342272266 L1.106298547925753,0.4591554283461996 L1.138561747560443,0.5716404939035695 L1.171011887683218,0.6831101872704488 L1.2036403011882504,0.7935347360136417 L1.2364382733546864,0.9028846468475618 L1.26939704417426,1.0111307135115952 L1.3025078106910042,1.1182440245707919 L1.33576172935243,1.2241959711378274 L1.3691499183715514,1.3289582545141405 L1.4026634600991226,1.4325028937482374 L1.4362934034054489,1.5348022331091187 L1.4700307660711223,1.635828949472771 " />
			<path d="M1.4343266739736582,-0.2008459075555458 L1.349202637744173,-0.18822001102425875 L1.2697385483887063,-0.17497668744812045 L1.1961950757350601,-0.1611593795306732 L1.1288134679307695,-0.1468134128435649 L1.0678147600653423,-0.13198584714292316 L1.013399049098354,-0.11672532199700156 L0.9657448374718819,-0.10108189723149269 L0.9250084475604666,-0.0851068887159034 L0.8913235088793962,-0.06885270002967026 L0.8648005197334631,-0.052372650560207935 L0.8455264847441186,-0.03572080059678944 L0.8335646294440846,-0.018951773994010566 L0.8289541928756318,-0.0021205789865645017 L0.8317102988728864,0.014717572256882305 " />
			<path d="M0.8317102988728866,0.01471757225688361 L0.8352822742247628,0.022161200425744126 L0.8402948069984131,0.029590572336788065 L0.8467446726410982,0.037000908689285114 L0.8546277219665952,0.04438744242804334 L0.8639388838243613,0.05174542181004664 L0.8746721683617966,0.05907011346124203 L0.8868206708775005,0.06635680542150998 L0.9003765762630573,0.07360081017585945 L0.91533116403048,0.08079746766989725 L0.9316748139220804,0.08794214830763207 L0.9493970120991669,0.09503025592968484 L0.9684863579055716,0.10205723076998911 L0.9889305712016753,0.10901855238908004 L1.0107165002641911,0.11590974258208286 " />
			<path d="M30.00163471540541,5.7004062717401895 L33.49674831664179,6.189820068462861 " />
			<path d="M30.380572097368418,7.627639510787888 L30.001634715405405,5.70040627174019 " />
			<path d="M25.64295666341855,6.964240656993515 L30.380572097368418,7.627639510787888 " />
			<path d="M25.567169187025947,6.578794009183976 L25.64295666341855,6.964240656993515 " />
			<path d="M20.90026443119473,5.92529663081937 L25.567169187025947,6.578794009183976 " />
			<path d="M20.900264431194735,5.92529663081937 L21.165520598568843,7.274359898152758 " />
			<path d="M15.22582363660184,6.442635962052351 L21.165520598568843,7.274359898152758 " />
			<path d="M15.225823636601843,6.442635962052352 L14.960567469227735,5.093572694718965 " />
			<path d="M10.647216103989795,4.489582693503193 L14.960567469227735,5.093572694718965 " />
			<path d="M10.723003580382398,4.875029341312732 L10.647216103989797,4.489582693503193 " />
			<path d="M5.985388146432529,4.211630487518361 L10.723003580382398,4.875029341312734 " />
			<path d="M5.606450764469518,2.284397248470664 L5.98538814643253,4.21163048751836 " />
			<path d="M3.040559159102155,0.3267486891823026 L3.040559159102155,1.4159109864566444 " />
			<path d="M3.5061429945188776,-0.23351985952397575 L3.4807018048851077,-0.21004857892041562 L3.454425102385251,-0.1844353917920372 L3.427230649294814,-0.15660013700650383 L3.3990333356217413,-0.12645569906618867 L3.3697449127392005,-0.09390773546436555 L3.339273717195437,-0.05885438142315616 L3.307524383836314,-0.021185931089163668 L3.2743975473426987,0.01921550581097084 L3.239789531248607,0.062476372929640256 L3.2035920234668267,0.1087320630267039 L3.1656917373065214,0.15812734170577897 L3.1259700569219055,0.21081680048455337 L3.0843026660823596,0.26696534061708593 L3.0405591591021555,0.3267486891823007 " />
			<path d="M3.5061429945188776,-0.23351985952397586 L1.0107165002642051,0.11590974258208353 " />
			<path d="M5.98538814643253,4.21163048751836 L6.717438954001407,4.109122870884828 " />
			<path d="M6.338501572038394,2.1818896318371315 L6.717438954001406,4.109122870884828 " />
			<path d="M3.0405591591021546,0.3267486891823026 L3.1689791823065976,0.33109444818530637 L3.3001383338961743,0.3333179677459026 L3.432254235640995,0.333389031498626 L3.56353150762103,0.331306673727518 L3.692186166417504,0.32709919248965735 L3.8164698684323266,0.3208237650606679 L3.934693668882641,0.3125656709280815 L4.045250973599277,0.30243713289163343 L4.146639371727224,0.290575792019278 L4.237481052634157,0.2771428371834038 L4.31654152957285,0.26232081459578765 L4.382746415653541,0.24631114710846036 L4.435196024150352,0.22933139699177285 L4.473177594731902,0.2116123093869535 L4.48657367887658,0.20255045789281423 L4.496174979468584,0.1933946766109514 L4.501948849703326,0.18417609746974473 L4.50387565698921,0.17492606592588056 " />
			<path d="M4.50387565698921,0.17492606592587912 L4.501024426976872,0.16367609118483195 L4.492485083138533,0.15248272161840787 " />
			<path d="M26.375007470987423,6.861733040359984 L30.33912021304104,7.416819852713918 " />
			<path d="M26.299219994594825,6.476286392550444 L26.375007470987427,6.861733040359983 " />
			<path d="M21.63231523876361,5.822789014185838 L26.299219994594825,6.476286392550443 " />
			<path d="M15.957874444170718,6.340128345418819 L21.124068714241464,7.063540240078788 " />
			<path d="M15.957874444170722,6.340128345418821 L15.692618276796614,4.991065078085433 " />
			<path d="M11.379266911558673,4.38707507686966 L15.692618276796614,4.991065078085432 " />
			<path d="M6.717438954001407,4.109122870884828 L10.68155169605502,4.664209683238763 " />
			<path d="M12.162236636408617,-0.9505416412576074 L12.162236636408617,0.13862065601673446 " />
			<path d="M12.62782047182534,-1.510810189963885 L12.60237928219157,-1.487338909360325 L12.576102579691712,-1.4617257222319464 L12.548908126601276,-1.433890467446413 L12.520710812928204,-1.4037460295060982 L12.491422390045662,-1.371198065904275 L12.4609511945019,-1.336144711863066 L12.429201861142776,-1.2984762615290733 L12.396075024649162,-1.2580748246289393 L12.36146700855507,-1.2148139575102699 L12.325269500773288,-1.1685582674132065 L12.287369214612983,-1.1191629887341317 L12.247647534228369,-1.0664735299553576 L12.205980143388823,-1.0103249898228253 L12.162236636408618,-0.95054164125761 " />
			<path d="M12.62782047182534,-1.5108101899638857 L3.9891888860585247,-0.30115981368342837 " />
			<path d="M3.9891888860585256,-0.3011598136834288 L4.005191186806088,-0.2910373424113978 L4.021516014253913,-0.2801591731893901 L4.038183813747847,-0.26851168211034576 L4.0552154601747,-0.25608028176229314 L4.072632284106119,-0.24284940295895602 L4.090456098513172,-0.22880247524077812 L4.10870922608509,-0.21392190612194711 L4.127414527186381,-0.1981890590574218 L4.146595428487334,-0.18158423010237296 L4.166275952303773,-0.1640866232348039 L4.186480746682801,-0.1456743243104443 L4.20723511627221,-0.12632427361729767 L4.2285650540122255,-0.10601223699547385 L4.250497273689278,-0.08471277548613121 " />
			<path d="M12.162236636408617,-0.9505416412576073 L12.29065665961306,-0.9461958822546035 L12.421815811202636,-0.9439723626940073 L12.553931712947456,-0.9439012989412839 L12.685208984927492,-0.9459836567123919 L12.813863643723966,-0.9501911379502526 L12.938147345738788,-0.956466565379242 L13.056371146189104,-0.9647246595118284 L13.16692845090574,-0.9748531975482765 L13.268316849033685,-0.986714538420632 L13.359158529940618,-1.0001474932565062 L13.438219006879311,-1.0149695158441223 L13.504423892960002,-1.0309791833314497 L13.556873501456813,-1.047958933448137 L13.594855072038364,-1.0656780210529564 L13.60825115618304,-1.0747398725470958 L13.617852456775047,-1.0838956538289586 L13.623626327009788,-1.0931142329701653 L13.625553134295671,-1.1023642645140292 " />
			<path d="M13.625553134295671,-1.1023642645140308 L13.622701904283334,-1.113614239255078 L13.614162560444994,-1.124807608821502 " />
			<path d="M21.28391411371508,-2.227831971697517 L21.28391411371508,-1.138669674423175 " />
			<path d="M21.749497949131804,-2.7881005204037943 L21.724056759498037,-2.7646292398002346 L21.697780056998177,-2.739016052671856 L21.67058560390774,-2.711180797886323 L21.64238829023467,-2.681036359946008 L21.613099867352126,-2.6484883963441845 L21.582628671808365,-2.6134350423029757 L21.55087933844924,-2.575766591968983 L21.517752501955627,-2.5353651550688494 L21.483144485861533,-2.4921042879501796 L21.446946978079755,-2.445848597853116 L21.40904669191945,-2.396453319174041 L21.369325011534833,-2.343763860395267 L21.327657620695287,-2.287615320262735 L21.28391411371508,-2.2278319716975195 " />
			<path d="M21.749497949131804,-2.788100520403795 L13.110866363364991,-1.578450144123338 " />
			<path d="M13.110866363364988,-1.5784501441233392 L13.126868664112548,-1.5683276728513083 L13.143193491560375,-1.5574495036293008 L13.159861291054307,-1.5458020125502565 L13.17689293748116,-1.5333706122022044 L13.194309761412578,-1.5201397333988673 L13.212133575819632,-1.5060928056806897 L13.230386703391549,-1.4912122365618592 L13.249092004492839,-1.4754793894973341 L13.268272905793792,-1.458874560542286 L13.287953429610232,-1.4413769536747174 L13.308158223989258,-1.4229646547503578 L13.328912593578668,-1.4036146040572122 L13.350242531318685,-1.383302567435389 L13.372174750995736,-1.3620031059260465 " />
			<path d="M21.28391411371508,-2.227831971697517 L21.412334136919526,-2.223486212694513 L21.543493288509104,-2.2212626931339168 L21.675609190253923,-2.2211916293811935 L21.806886462233958,-2.2232739871523015 L21.935541121030433,-2.2274814683901623 L22.059824823045254,-2.2337568958191514 L22.17804862349557,-2.2420149899517376 L22.288605928212206,-2.252143527988186 L22.38999432634015,-2.264004868860541 L22.480836007247085,-2.2774378236964155 L22.559896484185778,-2.292259846284032 L22.62610137026647,-2.308269513771359 L22.67855097876328,-2.3252492638880464 L22.71653254934483,-2.342968351492866 L22.729928633489507,-2.352030202987005 L22.739529934081514,-2.361185984268868 L22.745303804316254,-2.3704045634100748 L22.747230611602138,-2.379654594953939 " />
			<path d="M22.747230611602138,-2.3796545949539403 L22.744379381589802,-2.3909045696949875 L22.735840037751462,-2.4020979392614117 " />
			<path d="M27.78937196790212,1.1584620577510802 L28.168309349865133,-0.8748948751079207 " />
			<path d="M32.52698740185199,1.821860911545453 L27.789371967902117,1.1584620577510807 " />
			<path d="M32.60277487824459,1.4151895249736521 L32.52698740185198,1.821860911545452 " />
			<path d="M36.209019462295984,1.9201647718917554 L32.60277487824459,1.4151895249736515 " />
			<path d="M36.20901946229598,1.9201647718917554 L35.98165703311817,3.1401789316071564 " />
			<path d="M40.78998314518669,3.813479260831294 L35.981657033118175,3.140178931607157 " />
			<path d="M43.91898532659466,3.375331317080716 L43.987194055348006,3.0093270691660976 " />
			<path d="M45.25998626148379,3.187553626901898 L43.987194055348006,3.009327069166097 " />
			<path d="M24.268656069119185,-1.5566171460346834 L24.302393431784886,-1.667092213804092 L24.336023375091212,-1.778809821132742 L24.369536916818785,-1.8917401293721103 L24.402925105837905,-2.005852975973472 L24.43617902449933,-2.121117882544003 L24.469289791016074,-2.2375040629872593 L24.502248561835646,-2.3549804317258305 L24.53504653400208,-2.473515612003984 L24.56767494750712,-2.5930779442680825 L24.60012508762989,-2.71363549462253 L24.63238828726458,-2.835156063358995 L24.66445592923528,-2.95760719355663 L24.69631944859757,-3.0809561797509875 L24.727970334926116,-3.205170076669289 " />
			<path d="M24.72797033492608,-3.2051700766693134 L22.23254384067145,-2.8557404745632478 " />
			<path d="M22.23254384067145,-2.8557404745632486 L22.248546141419013,-2.8456180032912184 L22.264870968866838,-2.8347398340692105 L22.28153876836077,-2.8230923429901664 L22.298570414787626,-2.8106609426421145 L22.315987238719043,-2.7974300638387777 L22.333811053126094,-2.7833831361206 L22.352064180698015,-2.7685025670017698 L22.370769481799304,-2.7527697199372447 L22.389950383100256,-2.7361648909821965 L22.409630906916696,-2.718667284114628 L22.429835701295723,-2.700254985190269 L22.45059007088513,-2.680904934497123 L22.471920008625148,-2.6605928978753006 L22.4938522283022,-2.6392934363659584 " />
			<path d="M27.789371967902113,1.1584620577510805 L28.521422775470988,1.0559544411175488 " />
			<path d="M28.521422775470995,1.0559544411175485 L28.900360157434008,-0.9774024917414524 " />
			<path d="M22.465882530131644,-3.1458527877056137 L22.59740108244583,-3.162799555493219 L22.737813253474,-3.1780626843054445 L22.886160519630696,-3.191537980404331 L23.041430188409233,-3.2031334546906622 L23.202562311526357,-3.212769950667489 L23.368456920658442,-3.220381684801892 L23.537981536374502,-3.2259166955962284 L23.709978899006156,-3.2293371983032553 L23.88327486867999,-3.230619842863681 L24.056686440582535,-3.229755873305328 L24.22902982074179,-3.2267511875157706 L24.399128507195936,-3.2216262969804106 L24.56582132138312,-3.214416186760833 L24.727970334926077,-3.205170076669315 " />
			<path d="M32.564222465354206,1.6220596300633567 L28.52142277547099,1.0559544411175492 " />
			<path d="M36.94107026986486,1.8176571552582241 L33.33482568581346,1.3126819083401202 " />
			<path d="M36.94107026986486,1.8176571552582246 L36.71370784068705,3.037671314973625 " />
			<path d="M41.522033952755564,3.7109716441977625 L36.71370784068705,3.037671314973625 " />
			<path d="M45.922338832182554,3.075286304970259 L44.71924486291688,2.9068194525325657 " />
			<path d="M1.4343266739736609,-0.20084590755554535 L22.465882530131648,-3.1458527877056137 " />
			<path d="M21.749497949131808,-2.788100520403795 L21.917859936288547,-2.7969254714862233 L21.993639703111473,-2.8037538057020446 L22.061731573020285,-2.8120190220537546 L22.120757024042447,-2.8215537909855084 L22.169521084130906,-2.8321650808109515 L22.20703652340944,-2.8436380656455715 L22.232543840671454,-2.855740474563247 " />
			<path d="M3.506142994518878,-0.23351985952397591 L3.6745049816756183,-0.2423448106064036 L3.7502847484985455,-0.2491731448222249 L3.818376618407357,-0.2574383611739353 L3.877402069429519,-0.2669731301056888 L3.926166129517977,-0.2775844199311319 L3.9636815687965097,-0.28905740476575226 L3.989188886058525,-0.3011598136834275 " />
			<path d="M12.62782047182534,-1.5108101899638857 L12.79618245898208,-1.5196351410463134 L12.871962225805008,-1.5264634752621347 L12.940054095713819,-1.5347286916138452 L12.999079546735981,-1.5442634605455985 L13.04784360682444,-1.5548747503710418 L13.08535904610297,-1.566347735205662 L13.110866363364988,-1.5784501441233374 " />
			<path d="M34.011836175072936,5.396304109222876 L33.16330803764908,5.515121814380077 " />
			<path d="M34.278495314841564,5.367584240491287 L34.13850326775655,5.380731234118013 L34.011836175072936,5.396304109222875 " />
			<path d="M33.163308037649074,5.515121814380076 L33.065482685330984,5.530463222959596 L32.98064030710765,5.547251915519231 L32.90986392844927,5.565273581922539 L32.85405702026719,5.584298172940126 L32.81393196597452,5.604082836861992 L32.79991821347596,5.614181564505243 L32.79000096780675,5.624375019535423 L32.78421190303322,5.63463064571852 L32.78256950848474,5.644915688255992 L32.78507902970181,5.655197298398256 L32.791732451682684,5.665442638358236 " />
			<path d="M32.791732451682684,5.665442638358237 L32.80182496903941,5.675074290252462 L32.81558009600398,5.684616621140452 L32.85391046921979,5.703324496713442 L32.90628541586901,5.721352414880603 L32.97210623661806,5.738494298055551 L33.050620532008075,5.754554196940206 L33.14093080315202,5.769348530426144 L33.242004711067075,5.782708184114871 L33.35268687736757,5.794480443468773 L33.47171209142433,5.804530739494835 L33.59771977301928,5.812744187006187 L33.72926952517213,5.819026897877572 L33.86485759935456,5.823307054282867 L34.00293408487744,5.825535729646458 L34.141920625959,5.825687447924163 L34.280228463949456,5.823760474820529 L34.41627659847112,5.819776837613612 " />
			<path d="M34.56262812560142,6.26971945060366 L34.47797507678341,6.2671904825437466 L34.394087608808796,6.264142696085727 L34.31110746224412,6.260581240925851 L34.22917484459914,6.256512134681341 L34.148428193425076,6.25194225272272 L34.069003942403356,6.246879316556825 L33.99103629082033,6.241331880780165 L33.9146569768173,6.235309318624628 L33.8399950547989,6.228821806119989 L33.76717667737625,6.22188030489997 L33.69632488221303,6.214496543680901 L33.627559384134685,6.20668299844428 L33.560996372852145,6.198452871356713 L33.496748316641785,6.189820068462863 " />
			<path d="M30.733685522974284,5.5978986551066585 L30.00163471540541,5.70040627174019 " />
			<path d="M30.733685522974284,5.597898655106658 L31.054034733736593,5.642756517083113 " />
			<path d="M31.737047435628813,5.642756517083113 L31.695927728611487,5.6479236707797345 L31.65134573238356,5.65240093710219 L31.603815303894553,5.656136710590665 L31.55388428404572,5.6590879323126035 L31.50212818321607,5.661220586164652 L31.44914354786699,5.662510090945975 L31.3955410846827,5.662941583683866 L31.341938621498414,5.662510090945975 L31.288953986149334,5.661220586164651 L31.237197885319688,5.6590879323126035 L31.18726686547085,5.6561367105906655 L31.139736436981845,5.652400937102189 L31.095154440753923,5.647923670779735 L31.054034733736593,5.642756517083113 " />
			<path d="M31.737047435628817,5.6427565170831135 L34.25572540160006,5.290071057700143 " />
			<path d="M25.64295666341855,6.964240656993515 L26.375007470987427,6.861733040359983 " />
			<path d="M25.567169187025947,6.578794009183976 L26.299219994594825,6.476286392550444 " />
			<path d="M21.632315238763614,5.822789014185839 L20.90026443119474,5.925296630819371 " />
			<path d="M15.225823636601845,6.442635962052352 L15.957874444170722,6.340128345418819 " />
			<path d="M14.960567469227735,5.093572694718964 L15.692618276796612,4.991065078085432 " />
			<path d="M11.379266911558672,4.38707507686966 L10.647216103989795,4.489582693503192 " />
			<path d="M34.562628125601535,6.269719450603576 L34.52889076293584,6.168692734239855 L34.495260819629515,6.066393394878979 L34.46174727790194,5.962848755644889 L34.42835908888283,5.8580864722685835 L34.395105170221406,5.752134525701556 L34.361994403704664,5.645021214642366 L34.32903563288509,5.536775147978341 L34.29623766071866,5.42742523714443 L34.26360924721363,5.3170006884012455 L34.23115910709085,5.205530995034375 L34.19889590745617,5.093045929477014 L34.16682826548547,4.97957553535805 L34.13496474612318,4.865150119477714 L34.10331385979464,4.749800243712947 " />
			<path d="M34.10331385979466,4.749800243712927 L34.26546287333763,4.759046353804446 L34.43215568752481,4.766256464024022 L34.60225437397896,4.7713813545593835 L34.77459775413821,4.774386040348941 L34.94800932604076,4.7752500099072925 L35.12130529571459,4.773967365346867 L35.293302658346256,4.770546862639842 L35.462827274062306,4.765011851845505 L35.628721883194395,4.757400117711102 L35.789854006311515,4.747763621734276 L35.94512367509006,4.736168147447943 L36.09347094124676,4.722692851349058 L36.233883112274924,4.707429722536833 L36.3654016645891,4.6904829547492275 " />
			<path d="M33.33482568581347,1.3126819083401198 L32.602774878244595,1.4151895249736515 " />
			<path d="M36.20901946229598,1.9201647718917554 L36.94107026986485,1.8176571552582237 " />
			<path d="M35.981657033118175,3.140178931607156 L36.71370784068704,3.037671314973625 " />
			<path d="M44.71924486291688,2.9068194525325657 L43.987194055348006,3.0093270691660976 " />
			<path d="M57.82056769445656,1.428720424461527 L57.848255558955955,1.4375678839097104 L57.873732076197264,1.4465285359433597 L57.89697031089784,1.4555929068305349 L57.91794569421991,1.4647514131815842 L57.93663604974614,1.4739943720812687 L57.95302161692595,1.483312011326115 L57.96708507196738,1.4926944797561643 L57.97881154615304,1.5021318576702063 L57.988188641560015,1.511614167313473 L57.99520644416777,1.5211313834267095 L57.99985753433984,1.5306734438454748 L58.00213699466824,1.540230260138459 L58.00204241517257,1.5497917282735654 L57.999573895847874,1.5593477393004949 " />
			<path d="M57.999573895847874,1.5593477393004962 L57.991124306992816,1.5740455432439386 L57.977060854678165,1.5886694437003315 L57.95741887206298,1.603182699435068 L57.932247707861954,1.6175488471984547 L57.901610602361224,1.6317317933363449 L57.86558452853282,1.6456959044721953 L57.82425999864701,1.659406097032727 L57.77774083686835,1.6728279253922422 L57.72614391840682,1.685927668414163 L57.66959887587939,1.6986724141723526 L57.60824777361965,1.7110301426393715 L57.54224475075405,1.7229698061339134 L57.47175563394116,1.734461407325318 L57.3969575207471,1.7454760745991567 " />
			<path d="M36.598740354049305,4.40037064160686 L34.10331385979467,4.749800243712926 " />
			<path d="M45.72041783135576,3.12308031116695 L37.081786245588944,4.332730687447407 " />
			<path d="M54.84209530866222,1.8457899807270404 L46.20346372289541,3.0554403570074973 " />
			<path d="M57.82056769445655,1.428720424461528 L55.32514120020188,1.7781500265675878 " />
			<path d="M54.074983946582606,10.346736186962632 L54.51343542853012,8.116820876571186 " />
			<path d="M36.835766573216006,10.592189639585044 L36.39731441691891,12.822105044404317 " />
			<path d="M57.396957520747094,1.7454760745991573 L36.3654016645891,4.690482954749226 " />
			<path d="M37.08178624558895,4.332730687447408 L36.91342425843221,4.341555638529836 L36.83764449160928,4.348383972745657 L36.76955262170047,4.356649189097367 L36.71052717067831,4.36618395802912 L36.66176311058985,4.376795247854564 L36.624247671311316,4.388268232689184 L36.598740354049305,4.40037064160686 " />
			<path d="M55.32514120020188,1.778150026567588 L55.156779213045134,1.7869749776500157 L55.08099944622221,1.7938033118658372 L55.012907576313395,1.8020685282175475 L54.95388212529124,1.811603297149301 L54.90511806520278,1.8222145869747441 L54.86760262592424,1.8336875718093646 L54.84209530866223,1.8457899807270404 " />
			<path d="M46.203463722895414,3.055440357007498 L46.03510173573867,3.064265308089926 L45.959321968915745,3.071093642305747 L45.89123009900693,3.0793588586574576 L45.832204647984774,3.088893627589211 L45.783440587896315,3.099504917414654 L45.74592514861778,3.1109779022492745 L45.72041783135577,3.1230803111669503 " />
			<path d="M54.51343542853012,8.116820876571186 L54.477058835319156,8.157106568127633 L54.43875960011739,8.196029713504808 L54.3987790488393,8.233345055490595 L54.35736910147875,8.268817467744203 L54.31479068474519,8.30222343634218 L54.27131208794776,8.333352468153842 L54.227207272487455,8.362008417171877 L54.1827541456088,8.388010720440777 L54.13823280928871,8.411195535795517 L54.09392379529615,8.43141677424143 L54.050106297543564,8.448547020470254 L54.00705641286839,8.462478335712083 L53.96504540132924,8.47312293786441 L53.92433797697914,8.480413754612737 " />
			<path d="M36.835765898866434,10.592189734012871 L36.84914372735169,10.613933134179572 L36.8615287174805,10.635123445363389 L36.8728862205028,10.655701384691355 L36.88318446220803,10.675609382486812 L36.892394631818036,10.694791743328668 L36.9004909625892,10.713194801867175 L36.907450803898605,10.730767072960269 L36.91325468461225,10.747459395710507 L36.917886367558346,10.763225070999567 L36.92133289495306,10.778019992135606 L36.92358462465173,10.791802768247926 L36.92463525712415,10.804534840083747 L36.92448185307834,10.816180587883132 L36.92312484168367,10.826707431030282 " />
			<path d="M51.85494137316485,9.943269453850975 L51.856243079266086,9.901007976938283 L51.86013861237662,9.859422245643728 L51.866599287498076,9.818818479065136 L51.875577531050624,9.779495665542573 L51.88700723118401,9.741743361039248 L51.900804224596186,9.705839556978326 L51.91686691627503,9.672048633235928 L51.93507702759945,9.640619411363609 L51.95530046729131,9.611783322375503 L51.977388318804856,9.585752702591787 L52.00117793688286,9.562719230087072 L52.026494145205014,9.542852513257092 L52.053150526309565,9.52629884189681 L52.08095079428982,9.513180109986493 L52.109690240157484,9.503592918117857 L52.13915723922997,9.497607862169666 " />
			<path d="M52.139157239229974,9.497607862169666 L52.17347244772135,9.495233898225022 L52.20812494026131,9.497651544707633 L52.2427809944037,9.504837518360253 L52.27710685340222,9.516722614328351 L52.31077194047029,9.533192372640702 L52.343452042416224,9.554088180521472 L52.37483243199353,9.579208799917959 L52.40461089889631,9.608312305533046 L52.43250066020972,9.641118414698067 L52.458233122286224,9.677311186648117 L52.481560467449235,9.716542065204338 L52.502258040612794,9.758433235560453 L52.5201265128329,9.802581262845889 L52.53499380095418,9.848560977424121 L52.54671672486473,9.895929569508692 L52.55518238639889,9.94423085366352 L52.56030925660829,9.992999662118027 L52.56204796093018,10.041766324587055 L52.56038175469146,10.090061191452456 L52.55532668436906,10.137419156745656 L52.54693143305356,10.183384137372386 L52.53527685160444,10.227513465442195 L52.520475180012106,10.269382151402228 L52.5026689664654,10.308586976918935 L52.482029694534646,10.344750378091055 L52.45875613169111,10.377524081596373 L52.4330724150676,10.406592458754204 L52.405225892895345,10.431675565202129 L52.37548474240533,10.45253183691323 L52.344135387134926,10.468960416589734 L52.3114797385127,10.480803088028582 L52.277832288286284,10.487945799829951 " />
			<path d="M52.27783228828628,10.487945799829951 L52.23917411093923,10.490279150434315 L52.2001416309514,10.486542735901283 L52.161211063160394,10.476782142266913 L52.12285737902649,10.461116453420159 L52.085548511754745,10.43973679822274 L52.04973964728706,10.412904018646033 L52.01586767081707,10.380945487374852 L51.98434583658277,10.344251113704841 L51.95555872596804,10.30326858646345 L51.92985755542674,10.258497911993109 L51.90755589147475,10.210485313835825 L51.888925825029176,10.159816568545931 L51.874194651769656,10.10710985893726 L51.863542099022865,10.053008231958522 L51.85709813300355,9.998171753214407 L51.85494137316485,9.943269453850975 " />
			<path d="M23.82949852598665,-1.0594578709850415 L24.06616369253942,-0.6313739348434012 " />
			<path d="M22.980970388562795,-0.940640165827841 L23.133398969995287,-0.6649247824845188 " />
			<path d="M4.197437706120718,8.8092226309871 L4.203633798190182,8.819761697132137 L4.213590796974873,8.828836599082598 L4.2272895486107664,8.83642987982741 L4.244703701379661,8.84252693248854 L4.265799756400874,8.847116028419617 L4.290537132071652,8.850188339767856 L4.350738587205911,8.851761897550425 L4.424845061424078,8.847235503708756 L4.512286606797553,8.83664397043465 L4.612390716258841,8.820068756500959 L4.72438749580834,8.797637340767626 " />
			<path d="M2.040626485114477,1.785081976318224 L4.7243874958083465,8.797637340767626 " />
			<path d="M33.49674831664179,12.826573723555711 L4.724387495808344,8.797637340767624 " />
			<path d="M33.49674831664179,6.189820068462863 L33.49674831664179,12.826573723555716 " />
			<path d="M5.947441683157421,2.0314893860711245 L5.986116817752233,2.13254589650293 " />
			<path d="M6.690886326324554,3.9740791695276445 L6.743991581678257,4.112840982456278 " />
			<path d="M27.094236759091935,6.652624562211075 L26.354265418365113,6.756241275328203 " />
			<path d="M27.094236759091935,6.652624562211077 L27.094236759091935,-0.9296542125141425 " />
			<path d="M27.77724946098415,6.652624562211075 L27.77724946098415,-0.9296542125141425 " />
			<path d="M27.77724946098415,6.652624562211074 L27.702990372682667,6.66524394513616 L27.619316495989082,6.674589398318124 L27.52917555742161,6.68033169307464 L27.43574311003804,6.682268535509475 L27.342310662654473,6.680331693074641 L27.252169724086997,6.674589398318126 L27.168495847393412,6.665243945136162 L27.09423675909193,6.652624562211077 " />
			<path d="M30.257140213934182,6.9998787254031924 L27.77724946098416,6.652624562211078 " />
			<path d="M5.8689862838483435,1.4555168881757115 L6.105651450401109,1.8836008243173512 " />
			<path d="M5.020458146424487,1.5743345933329125 L5.1728867278569775,1.8500499766762337 " />
			<path d="M5.867496566763767,10.138336114972638 L5.817101506632343,10.130000130393668 L5.76711862799204,10.119164876946645 L5.717608238962753,10.105843428183583 L5.668630077569966,10.090051857439018 L5.620243239666299,10.071809218436298 L5.572506107627902,10.051137522297836 L5.5254762799117065,10.028061710987023 L5.479210501558532,10.002609627213866 L5.433764595725909,9.974811980840656 L5.389193396333219,9.944702311828193 L5.345550681900432,9.912316949767296 L5.302889110660254,9.877694970044406 L5.26126015702199,9.840878146694171 L5.220714049463783,9.801910901995926 L5.181299709928159,9.760840252874855 L5.143064694794004,9.717715754172511 L5.1060551374962015,9.672589438855166 L5.070315692862159,9.625515755232097 L5.035889483232379,9.576551501259587 L5.002818046430103,9.525755756009907 L4.971141285642787,9.473189808387941 L4.940897421275887,9.418917083181498 L4.9121229448370585,9.363003064534508 L4.884852574906389,9.305515216935463 L4.834953915098224,9.18609730386069 L4.791442195221757,9.061239517048097 L4.754527352643056,8.93154427614396 L4.724387495808349,8.797637340767642 " />
			<path d="M34.6398573875972,14.167272497760726 L34.58946232746578,14.158936513181757 L34.53947944882548,14.148101259734732 L34.489969059796195,14.13477981097167 L34.440990898403406,14.118988240227104 L34.392604060499735,14.100745601224384 L34.34486692846134,14.080073905085921 L34.29783710074515,14.056998093775109 L34.251571322391975,14.031546010001954 L34.206125416559345,14.003748363628741 L34.16155421716666,13.973638694616278 L34.117911502733875,13.941253332555384 L34.075249931493694,13.906631352832491 L34.03362097785543,13.869814529482257 L33.99307487029722,13.830847284784012 L33.9536605307616,13.78977663566294 L33.91542551562745,13.746652136960597 L33.87841595832964,13.701525821643251 L33.8426765136956,13.654452138020183 L33.80825030406582,13.605487884047673 L33.77517886726354,13.554692138797993 L33.74350210647623,13.502126191176027 L33.713258242109326,13.447853465969583 L33.6844837656705,13.391939447322594 L33.65721339573983,13.334451599723547 L33.607314735931666,13.215033686648773 L33.5638030160552,13.090175899836183 L33.5268881734765,12.960480658932044 L33.49674831664179,12.826573723555727 " />
			<path d="M36.365401664589115,12.826573723555711 L36.29176521499606,12.85822050184667 L36.21512451750449,12.888165756415612 L36.13564878598121,12.916343371576179 L36.05351349372289,12.942691134387013 L35.96889998603114,12.967150872010805 L35.881995079822936,12.989668580153236 L35.792990651160274,13.010194542298263 L35.70208321160983,13.028683439476492 L35.60947347436801,13.045094450324248 L35.51536591110918,13.059391341212477 L35.419968300535714,13.071542546246429 L35.323491269626444,13.081521236959542 L35.22614782859647,13.089305381547613 L35.128152900595,13.094877793512495 L35.02972284717976,13.098226169607912 L34.93107499061546,13.099343117003617 L34.832427134051144,13.098226169607912 L34.73399708063591,13.094877793512495 L34.63600215263444,13.089305381547613 L34.53865871160446,13.081521236959542 L34.44218168069519,13.071542546246429 L34.34678407012173,13.059391341212475 L34.2526765068629,13.045094450324248 L34.160066769621075,13.028683439476492 L34.06915933007063,13.010194542298263 L33.98015490140797,12.989668580153234 L33.89324999519977,12.967150872010803 L33.80863648750802,12.942691134387012 L33.72650119524969,12.916343371576176 L33.647025463726415,12.88816575641561 L33.570384766234845,12.858220501846667 L33.496748316641806,12.826573723555716 " />
			<path d="M36.36540166458911,4.690482954749227 L36.36540166458911,12.826573723555711 " />
			<path d="M27.27088088184267,6.987180409863067 L27.23960095771029,6.956747088035144 L27.21039952444123,6.922239945585696 L27.183586025525955,6.8840246498608275 L27.159444599849703,6.8425061629865285 L27.13823107071256,6.798124450541858 L27.120170234905874,6.751349819305445 L27.10545348057218,6.702677933480554 L27.09423675909193,6.652624562211076 " />
			<path d="M27.548083576466535,7.025996551115132 L27.588429895049533,6.99745641314273 L27.62646141697231,6.962470882073853 L27.661601568172333,6.921570353453 L27.693317608998086,6.875374896705602 L27.72112871076899,6.824584854621561 L27.74461324534289,6.769970225860418 L27.76341517717817,6.712358991443884 L27.77724946098415,6.652624562211075 " />
			<path d="M54.63384648860003,10.353852798030712 L54.62765039653057,10.364391864175749 L54.617693397745875,10.373466766126208 L54.60399464610998,10.38106004687102 L54.58658049334109,10.38715709953215 L54.56548443831988,10.391746195463227 L54.540747062649096,10.394818506811466 L54.48054560751484,10.396392064594036 L54.40643913329667,10.391865670752367 L54.3189975879232,10.381274137478261 L54.21889347846191,10.36469892354457 L54.10689669891241,10.342267507811234 " />
			<path d="M57.396957520747094,1.745476074599157 L54.10689669891241,10.342267507811234 " />
			<path d="M34.011836175072936,5.396304109222877 L34.248501341625705,5.824388045364516 " />
			<path d="M33.16330803764908,5.515121814380078 L33.31573661908157,5.7908371977233974 " />
			<path d="M36.365401664589115,12.826573723555711 L36.33526180775441,12.960480658932047 L36.29834696517571,13.090175899836186 L36.25483524529924,13.215033686648777 L36.204936585491076,13.33445159972355 L36.17766621556041,13.391939447322597 L36.14889173912158,13.447853465969587 L36.11864787475468,13.50212619117603 L36.08697111396736,13.554692138797996 L36.053899677165084,13.605487884047676 L36.019473467535306,13.654452138020185 L35.98373402290126,13.701525821643255 L35.94672446560346,13.7466521369606 L35.908489450469304,13.789776635662944 L35.86907511093368,13.830847284784015 L35.82852900337547,13.869814529482259 L35.78690004973721,13.906631352832495 L35.74423847849703,13.941253332555386 L35.700595764064246,13.97363869461628 L35.656024564671554,14.003748363628743 L35.61057865883893,14.031546010001955 L35.56431288048576,14.05699809377511 L35.517283052769564,14.080073905085925 L35.469545920731164,14.100745601224386 L35.4211590828275,14.118988240227106 L35.37218092143471,14.134779810971672 L35.322670532405425,14.148101259734734 L35.272687653765125,14.158936513181757 L35.22229259363371,14.167272497760726 " />
			<path d="M54.51343542853012,8.116820876571186 L36.835766573216006,10.592189639585044 " />
			<path d="M36.39731441691892,12.822105044404317 L36.365401664589115,12.826573723555711 " />
			<path d="M54.106896698912415,10.342267507811236 L54.074983946582606,10.34673618696263 " />
			<path d="M52.94781376565246,11.685075745576794 L52.96378762795698,11.68296628201625 " />
			<path d="M52.96378762795699,11.682966282016249 L53.01418268808841,11.67463029743728 L53.06416556672871,11.663795043990255 L53.113675955758,11.650473595227194 L53.16265411715079,11.634682024482629 L53.21104095505446,11.616439385479909 L53.25877808709285,11.595767689341447 L53.305807914809044,11.572691878030634 L53.35207369316222,11.547239794257477 L53.39751959899485,11.519442147884266 L53.44209079838753,11.489332478871804 L53.48573351282032,11.456947116810907 L53.5283950840605,11.422325137088016 L53.570024037698765,11.385508313737782 L53.61057014525697,11.346541069039537 L53.64998448479259,11.305470419918466 L53.688219499926745,11.262345921216122 L53.72522905722455,11.217219605898777 L53.76096850185859,11.170145922275708 L53.79539471148837,11.121181668303198 L53.828466148290644,11.070385923053518 L53.860142909077965,11.017819975431552 L53.89038677344487,10.963547250225108 L53.91916124988369,10.907633231578119 L53.94643161981436,10.850145383979072 L53.996330279622526,10.730727470904299 L54.039841999499,10.605869684091706 L54.07675684207769,10.476174443187569 L54.1068966989124,10.342267507811252 " />
			<path d="M36.39731441691892,12.822105044404315 L36.3671745600842,12.95601197978065 L36.330259717505506,13.085707220684789 L36.286747997629035,13.210565007497381 L36.23684933782087,13.329982920572155 L36.2095789678902,13.387470768171202 L36.180804491451376,13.44338478681819 L36.150560627084474,13.497657512024633 L36.11888386629716,13.550223459646599 L36.08581242949488,13.601019204896279 L36.0513862198651,13.649983458868789 L36.01564677523106,13.69705714249186 L35.978637217933255,13.742183457809205 L35.940402202799106,13.785307956511547 L35.90098786326348,13.82637860563262 L35.860441755705274,13.865345850330865 L35.81881280206701,13.902162673681099 L35.776151230826834,13.93678465340399 L35.73250851639404,13.969170015464886 L35.68793731700136,13.999279684477349 L35.642491411168734,14.02707733085056 L35.59622563281555,14.052529414623717 L35.54919580509936,14.07560522593453 L35.50145867306097,14.096276922072992 L35.453071835157296,14.114519561075712 L35.40409367376451,14.130311131820276 L35.35458328473523,14.143632580583338 L35.30460040609492,14.154467834030363 L35.25420534596351,14.16280381860933 " />
			<path d="M35.2542053459635,14.162803818609333 L35.238231483658936,14.16491328216988 " />
			<path d="M36.50943593959071,12.901935668594678 L49.97376939163857,11.016551870833208 " />
			<path d="M49.689553525573444,11.462213462514516 L49.719020524645934,11.456228406566325 L49.7477599705136,11.446641214697689 L49.77556023849385,11.433522482787371 L49.802216619598404,11.41696881142709 L49.82753282792056,11.39710209459711 L49.85132244599856,11.374068622092395 L49.87341029751211,11.348038002308678 L49.89363373720397,11.319201913320573 L49.911843848528385,11.287772691448254 L49.92790654020723,11.253981767705856 L49.94170353361941,11.218077963644934 L49.953133233752794,11.18032565914161 L49.96211147730534,11.141002845619045 L49.968572152426795,11.100399079040454 L49.97246768553733,11.058813347745899 L49.97376939163857,11.016551870833212 " />
			<path d="M50.96509203889023,11.462213462514516 L50.935625039817744,11.456228406566325 L50.90688559395008,11.446641214697689 L50.879085325969825,11.433522482787371 L50.852428944865274,11.41696881142709 L50.82711273654312,11.39710209459711 L50.803323118465116,11.374068622092395 L50.78123526695157,11.348038002308678 L50.76101182725971,11.319201913320573 L50.74280171593529,11.287772691448254 L50.726739024256446,11.253981767705856 L50.71294203084427,11.218077963644934 L50.701512330710884,11.18032565914161 L50.692534087158336,11.141002845619045 L50.68607341203688,11.100399079040454 L50.682177878926346,11.058813347745899 L50.68087617282511,11.016551870833212 " />
			<path d="M50.68087617282511,11.016551870833208 L50.605107898741636,11.007844731052954 L50.518664498414374,11.001374742511208 L50.424867943239896,10.997390543239218 L50.32732278223183,10.99604524378064 L50.22977762122377,10.997390543239218 L50.13598106604929,11.001374742511208 L50.04953766572203,11.007844731052954 L49.97376939163856,11.016551870833208 " />
			<path d="M50.68087617282511,11.016551870833206 L52.287103882015664,11.241468737992554 " />
			<path d="M52.287103882015664,11.241468737992554 L52.2884055881169,11.283730214905246 L52.29230112122744,11.325315946199801 L52.29876179634889,11.365919712778393 L52.30774003990144,11.405242526300956 L52.31916974003482,11.442994830804281 L52.332966733447,11.478898634865203 L52.34902942512585,11.512689558607601 L52.36723953645026,11.54411878047992 L52.387462976142125,11.572954869468024 L52.40955082765567,11.598985489251742 L52.43334044573368,11.622018961756456 L52.45865665405583,11.641885678586437 L52.48531303516038,11.658439349946718 L52.513113303140635,11.671558081857036 L52.5418527490083,11.681145273725672 L52.57131974808078,11.687130329673863 " />
			<path d="M52.93187487562719,11.687434961167646 L52.98226993575861,11.679098976588676 L53.03225281439891,11.668263723141651 L53.081763203428196,11.65494227437859 L53.130741364820985,11.639150703634025 L53.179128202724655,11.620908064631305 L53.22686533476305,11.600236368492842 L53.27389516247924,11.57716055718203 L53.320160940832416,11.551708473408873 L53.365606846665045,11.523910827035662 L53.41017804605773,11.4938011580232 L53.453820760490515,11.461415795962303 L53.4964823317307,11.426793816239412 L53.53811128536896,11.389976992889178 L53.57865739292717,11.351009748190933 L53.618071732462795,11.309939099069862 L53.65630674759694,11.266814600367518 L53.69331630489475,11.221688285050172 L53.72905574952879,11.174614601427102 L53.76348195915857,11.125650347454593 L53.79655339596085,11.074854602204912 L53.82823015674816,11.022288654582947 L53.858474021115065,10.968015929376504 L53.88724849755389,10.912101910729515 L53.91451886748456,10.854614063130468 L53.964417527292724,10.735196150055694 L54.007929247169194,10.610338363243102 L54.04484408974789,10.480643122338964 L54.0749839465826,10.346736186962648 " />
			<path d="M53.37992420504322,10.22028858913966 L53.716294729725405,8.509545636187328 " />
			<path d="M53.37992420504322,10.220288589139658 L53.453342218282586,10.253664431497361 L53.53752567697193,10.283855118210873 L53.629239458004456,10.309700438120926 L53.72495905220876,10.330207170077598 L53.82100600925974,10.344587251872104 L53.91368929846167,10.35228806502552 L53.99944715298792,10.353013671607032 L54.0749839465826,10.346736186962632 " />
			<path d="M36.546414474970895,12.74261431902789 L36.54149177677282,12.756553684607228 L36.53240985095255,12.76954759174187 L36.51924647198736,12.781484765097128 L36.50211436651019,12.792262978841565 L36.48116024795769,12.801789932073735 L36.45656356016694,12.809984039255239 L36.42853494068045,12.816775128881101 L36.39731441691892,12.822105044404317 " />
			<path d="M49.97376939163856,11.016551870833206 L49.97376939163856,9.033604005676649 " />
			<path d="M50.68087617282511,11.016551870833206 L50.68087617282511,8.93458925137898 " />
			<path d="M52.287103882015664,11.241468737992557 L52.33337100686825,11.246622154384603 L52.37956072311289,11.249116394786839 L52.425595751652445,11.24894728613517 L52.471399072194714,11.246115111361924 L52.51689405211353,11.24062460892248 L52.5620045746613,11.232484964867457 L52.60665516631845,11.221709797473704 L52.65077112306661,11.208317134459843 L52.694278635374495,11.192329382824452 L52.73710491168711,11.173773291357348 L52.77917830021189,11.152679905886727 L52.82042840879786,11.129084517337004 L52.8607862227074,11.10302660268427 L52.90018422008335,11.074549758908143 L52.93855648491858,11.043701630050528 L52.97583881733867,11.010533827503316 L53.01196884101351,10.975101843658395 L53.04688610751787,10.937464959064421 L53.08053219746643,10.89768614324572 L53.11285081825418,10.855831949349215 L53.14378789823835,10.811972402795687 L53.173291677204695,10.766180884121631 L53.201312792966434,10.718534006207737 L53.22780436395115,10.669111486099398 L53.25272206763743,10.61799601163371 L53.27602421470998,10.56527310309609 L53.29767181880921,10.511030970137979 L53.31762866175851,10.45536036419504 L53.33586135416021,10.398354426652716 L53.352339391258646,10.340108533013241 L53.37992420504321,10.220288589139672 " />
			<path d="M0.8317185627102072,0.014739165318448544 L4.197437706120718,8.809222630987101 " />
			<path d="M4.50387565698921,1.2640883632002209 L4.50387565698921,0.17492606592587906 " />
			<path d="M13.625553134295671,-0.013201967239688805 L13.625553134295671,-1.1023642645140308 " />
			<path d="M22.747230611602138,-1.2904922976795985 L22.747230611602138,-2.3796545949539403 " />
			<path d="M5.867496566763767,10.138336114972638 L5.7448955628601635,10.117449935300623 L5.623745949241138,10.08934282268791 L5.504472635200873,10.054113357501574 L5.387493949268611,10.011885100409616 L5.273220172000679,9.96280615901535 L5.162052096999232,9.907048668398073 L5.054379625204716,9.844808187381918 L4.950580397392256,9.77630301265037 L4.851018469668258,9.701773413112038 L4.756043036612651,9.621480787203035 L4.665987206545132,9.535706746081532 L4.581166833210903,9.444752125930027 L4.501879407983554,9.348935932829484 L4.428403016470497,9.248594223906009 L4.360995363180435,9.144078928674213 L4.2998928676736625,9.035756614711172 L4.245309835365303,8.924007201990175 L4.197437705889705,8.809222630383472 " />
			<path d="M34.6398573875972,14.167272497760727 L5.867496566763762,10.13833611497264 " />
			<path d="M4.250497205962015,-0.08471284187213783 L4.492485083138533,0.15248272161840795 " />
			<path d="M13.372174683268469,-1.3620031723120565 L13.614162560444996,-1.1248076088215027 " />
			<path d="M22.493852160574928,-2.6392935027519697 L22.73584003775146,-2.402097939261412 " />
			<path d="M57.99956563201055,1.5593693323620619 L54.63384648860004,10.353852798030715 " />
			<path d="M35.2222925936337,14.167272497760727 L35.10616698834388,14.180250763444015 L34.98949928903442,14.186749957387105 L34.872650705029,14.186749957744258 L34.75598300567981,14.180250764514366 L34.63985740031065,14.167272499540964 " />
			<path d="M54.63384648883105,10.353852797427082 L54.58597435935545,10.468637369033786 L54.53139132704709,10.580386781754783 L54.470288831540316,10.688709095717824 L54.402881178250254,10.793224390949621 L54.32940478673719,10.893566099873095 L54.250117361509844,10.989382292973637 L54.16529698817562,11.080336913125144 L54.0752411581081,11.166110954246648 L53.98026572505249,11.24640358015565 L53.88070379732849,11.32093317969398 L53.776904569516034,11.38943835442553 L53.66923209772152,11.451678835441685 L53.558064022720075,11.507436326058961 L53.443790245452135,11.556515267453229 L53.326811559519875,11.598743524545185 L53.20753824547961,11.633972989731522 L53.086388631860586,11.662080102344236 L52.96378762795698,11.68296628201625 " />
			<path d="M35.2542053459635,14.162803818609333 L35.222292593633696,14.167272497760727 " />
			<path d="M36.34461100511483,13.330879185904191 L49.689553525573444,11.462213462514516 " />
			<path d="M50.96509203889023,11.462213462514516 L50.836154833685946,11.447440997834114 L50.68074677975449,11.435833369801788 L50.50825693982415,11.428521476020078 L50.327322911106855,11.42603167176369 L50.14638874963387,11.428521473851674 L49.97389874946381,11.435833387056165 L49.81849068570655,11.44744100304624 L49.689553525573444,11.462213462514516 " />
			<path d="M50.96509203889023,11.462213462514516 L52.57131974808079,11.687130329673863 " />
			<path d="M52.963787627957,11.682966282016253 L52.93187487562719,11.687434961167646 " />
			<path d="M53.92433784138707,8.480413773599423 L36.9161791666019,10.862032359428415 " />
			<path d="M36.92312486927947,10.826707290681147 L36.546414474970895,12.742614319027888 " />
			<path d="M36.546414474970895,12.74261431902789 L36.53162887887212,12.812394205345607 L36.51488868344937,12.881269706826153 L36.49620831625643,12.94915722150831 L36.47560414486876,13.01597447012022 L36.45309447688349,13.081640496079388 L36.42869955991944,13.14607566549268 L36.402441581617076,13.209201667156323 L36.37434466963858,13.270941512555904 L36.34443489166779,13.331219535866374 L36.31274025541021,13.389961393952044 L36.27929072892097,13.44709405894546 L36.24411935323623,13.502545505657485 L36.20726127173541,13.55624532189349 L36.16875376704613,13.60812457309683 L36.12863703293045,13.658115693268371 L36.08695409572495,13.70615229005096 L36.043750959786465,13.752169471223873 L35.99907683397756,13.796104115610703 L35.95298413166654,13.837894873079371 L35.90552841057099,13.8774822348461 L35.85676607165882,13.91481148178253 L35.806759464291225,13.949827640910334 L35.7555754501761,13.98247713745255 L35.7032833903035,14.01271007515106 L35.64995514494559,14.04048023626659 L35.595665073656676,14.065745081578704 L35.54049003527324,14.08846575038581 L35.484509387913846,14.108607060505154 L35.42780498897924,14.126137508272828 L35.37046119515229,14.141029268543761 L35.31256486239799,14.153258194691725 L35.254205345963506,14.162803818609333 " />
			<path d="M52.57131974808078,11.687130329673865 L52.66167423744457,11.696635775289018 L52.75209337835491,11.699862335231035 L52.842265105454736,11.696792983108175 L52.93187487562719,11.687434961167648 " />

       </g>
    </g>
    
</svg>
